<?xml version="1.0" encoding="utf-8" standalone="no"?>
<!DOCTYPE svg PUBLIC "-//W3C//DTD SVG 1.1//EN"
  "http://www.w3.org/Graphics/SVG/1.1/DTD/svg11.dtd">
<svg xmlns:xlink="http://www.w3.org/1999/xlink" width="854.282906pt" height="424.8pt" viewBox="0 0 854.282906 424.8" xmlns="http://www.w3.org/2000/svg" version="1.1">
 <metadata>
  <rdf:RDF xmlns:dc="http://purl.org/dc/elements/1.1/" xmlns:cc="http://creativecommons.org/ns#" xmlns:rdf="http://www.w3.org/1999/02/22-rdf-syntax-ns#">
   <cc:Work>
    <dc:type rdf:resource="http://purl.org/dc/dcmitype/StillImage"/>
    <dc:date>2026-05-22T03:06:06.870856</dc:date>
    <dc:format>image/svg+xml</dc:format>
    <dc:creator>
     <cc:Agent>
      <dc:title>Matplotlib v3.10.5, https://matplotlib.org/</dc:title>
     </cc:Agent>
    </dc:creator>
   </cc:Work>
  </rdf:RDF>
 </metadata>
 <defs>
  <style type="text/css">*{stroke-linejoin: round; stroke-linecap: butt}</style>
 </defs>
 <g id="figure_1">
  <g id="patch_1">
   <path d="M 0 424.8 
L 854.282906 424.8 
L 854.282906 0 
L 0 0 
z
" style="fill: #ffffff"/>
  </g>
  <g id="axes_1">
   <g id="patch_2">
    <path d="M 41.17125 127.388571 
L 788.53875 127.388571 
L 788.53875 86.348571 
L 41.17125 86.348571 
z
" clip-path="url(#p02bbaac87c)" style="fill: #f8fafc; stroke: #e2e8f0; stroke-linejoin: miter"/>
   </g>
   <g id="patch_3">
    <path d="M 41.17125 127.388571 
L 435.577462 127.388571 
L 435.577462 86.348571 
L 41.17125 86.348571 
z
" clip-path="url(#p02bbaac87c)" style="fill: #2563eb; stroke: #ffffff; stroke-width: 2; stroke-linejoin: miter"/>
   </g>
   <g id="patch_4">
    <path d="M 41.17125 186.017143 
L 788.53875 186.017143 
L 788.53875 144.977143 
L 41.17125 144.977143 
z
" clip-path="url(#p02bbaac87c)" style="fill: #f8fafc; stroke: #e2e8f0; stroke-linejoin: miter"/>
   </g>
   <g id="patch_5">
    <path d="M 41.17125 186.017143 
L 649.596338 186.017143 
L 649.596338 144.977143 
L 41.17125 144.977143 
z
" clip-path="url(#p02bbaac87c)" style="fill: #10b981; stroke: #ffffff; stroke-width: 2; stroke-linejoin: miter"/>
   </g>
   <g id="patch_6">
    <path d="M 41.17125 244.645714 
L 788.53875 244.645714 
L 788.53875 203.605714 
L 41.17125 203.605714 
z
" clip-path="url(#p02bbaac87c)" style="fill: #f8fafc; stroke: #e2e8f0; stroke-linejoin: miter"/>
   </g>
   <g id="patch_7">
    <path d="M 41.17125 244.645714 
L 603.73515 244.645714 
L 603.73515 203.605714 
L 41.17125 203.605714 
z
" clip-path="url(#p02bbaac87c)" style="fill: #8b5cf6; stroke: #ffffff; stroke-width: 2; stroke-linejoin: miter"/>
   </g>
   <g id="patch_8">
    <path d="M 41.17125 303.274286 
L 788.53875 303.274286 
L 788.53875 262.234286 
L 41.17125 262.234286 
z
" clip-path="url(#p02bbaac87c)" style="fill: #f8fafc; stroke: #e2e8f0; stroke-linejoin: miter"/>
   </g>
   <g id="patch_9">
    <path d="M 41.17125 303.274286 
L 316.338375 303.274286 
L 316.338375 262.234286 
L 41.17125 262.234286 
z
" clip-path="url(#p02bbaac87c)" style="fill: #f59e0b; stroke: #ffffff; stroke-width: 2; stroke-linejoin: miter"/>
   </g>
   <g id="patch_10">
    <path d="M 41.17125 361.902857 
L 788.53875 361.902857 
L 788.53875 320.862857 
L 41.17125 320.862857 
z
" clip-path="url(#p02bbaac87c)" style="fill: #f8fafc; stroke: #e2e8f0; stroke-linejoin: miter"/>
   </g>
   <g id="patch_11">
    <path d="M 41.17125 361.902857 
L 417.84447 361.902857 
L 417.84447 320.862857 
L 41.17125 320.862857 
z
" clip-path="url(#p02bbaac87c)" style="fill: #ef4444; stroke: #ffffff; stroke-width: 2; stroke-linejoin: miter"/>
   </g>
   <g id="text_1">
    <!-- Benchmark: 200 Query Test Set -->
    <g style="fill: #1e293b" transform="translate(237.109687 36.514286) scale(0.2 -0.2)">
     <defs>
      <path id="DejaVuSans-Bold-42" d="M 2456 2859 
Q 2741 2859 2887 2984 
Q 3034 3109 3034 3353 
Q 3034 3594 2887 3720 
Q 2741 3847 2456 3847 
L 1791 3847 
L 1791 2859 
L 2456 2859 
z
M 2497 819 
Q 2859 819 3042 972 
Q 3225 1125 3225 1434 
Q 3225 1738 3044 1889 
Q 2863 2041 2497 2041 
L 1791 2041 
L 1791 819 
L 2497 819 
z
M 3616 2497 
Q 4003 2384 4215 2081 
Q 4428 1778 4428 1338 
Q 4428 663 3972 331 
Q 3516 0 2584 0 
L 588 0 
L 588 4666 
L 2394 4666 
Q 3366 4666 3802 4372 
Q 4238 4078 4238 3431 
Q 4238 3091 4078 2852 
Q 3919 2613 3616 2497 
z
" transform="scale(0.015625)"/>
      <path id="DejaVuSans-Bold-65" d="M 4031 1759 
L 4031 1441 
L 1416 1441 
Q 1456 1047 1700 850 
Q 1944 653 2381 653 
Q 2734 653 3104 758 
Q 3475 863 3866 1075 
L 3866 213 
Q 3469 63 3072 -14 
Q 2675 -91 2278 -91 
Q 1328 -91 801 392 
Q 275 875 275 1747 
Q 275 2603 792 3093 
Q 1309 3584 2216 3584 
Q 3041 3584 3536 3087 
Q 4031 2591 4031 1759 
z
M 2881 2131 
Q 2881 2450 2695 2645 
Q 2509 2841 2209 2841 
Q 1884 2841 1681 2658 
Q 1478 2475 1428 2131 
L 2881 2131 
z
" transform="scale(0.015625)"/>
      <path id="DejaVuSans-Bold-6e" d="M 4056 2131 
L 4056 0 
L 2931 0 
L 2931 347 
L 2931 1631 
Q 2931 2084 2911 2256 
Q 2891 2428 2841 2509 
Q 2775 2619 2662 2680 
Q 2550 2741 2406 2741 
Q 2056 2741 1856 2470 
Q 1656 2200 1656 1722 
L 1656 0 
L 538 0 
L 538 3500 
L 1656 3500 
L 1656 2988 
Q 1909 3294 2193 3439 
Q 2478 3584 2822 3584 
Q 3428 3584 3742 3212 
Q 4056 2841 4056 2131 
z
" transform="scale(0.015625)"/>
      <path id="DejaVuSans-Bold-63" d="M 3366 3391 
L 3366 2478 
Q 3138 2634 2908 2709 
Q 2678 2784 2431 2784 
Q 1963 2784 1702 2511 
Q 1441 2238 1441 1747 
Q 1441 1256 1702 982 
Q 1963 709 2431 709 
Q 2694 709 2930 787 
Q 3166 866 3366 1019 
L 3366 103 
Q 3103 6 2833 -42 
Q 2563 -91 2291 -91 
Q 1344 -91 809 395 
Q 275 881 275 1747 
Q 275 2613 809 3098 
Q 1344 3584 2291 3584 
Q 2566 3584 2833 3536 
Q 3100 3488 3366 3391 
z
" transform="scale(0.015625)"/>
      <path id="DejaVuSans-Bold-68" d="M 4056 2131 
L 4056 0 
L 2931 0 
L 2931 347 
L 2931 1625 
Q 2931 2084 2911 2256 
Q 2891 2428 2841 2509 
Q 2775 2619 2662 2680 
Q 2550 2741 2406 2741 
Q 2056 2741 1856 2470 
Q 1656 2200 1656 1722 
L 1656 0 
L 538 0 
L 538 4863 
L 1656 4863 
L 1656 2988 
Q 1909 3294 2193 3439 
Q 2478 3584 2822 3584 
Q 3428 3584 3742 3212 
Q 4056 2841 4056 2131 
z
" transform="scale(0.015625)"/>
      <path id="DejaVuSans-Bold-6d" d="M 3781 2919 
Q 3994 3244 4286 3414 
Q 4578 3584 4928 3584 
Q 5531 3584 5847 3212 
Q 6163 2841 6163 2131 
L 6163 0 
L 5038 0 
L 5038 1825 
Q 5041 1866 5042 1909 
Q 5044 1953 5044 2034 
Q 5044 2406 4934 2573 
Q 4825 2741 4581 2741 
Q 4263 2741 4089 2478 
Q 3916 2216 3909 1719 
L 3909 0 
L 2784 0 
L 2784 1825 
Q 2784 2406 2684 2573 
Q 2584 2741 2328 2741 
Q 2006 2741 1831 2477 
Q 1656 2213 1656 1722 
L 1656 0 
L 531 0 
L 531 3500 
L 1656 3500 
L 1656 2988 
Q 1863 3284 2130 3434 
Q 2397 3584 2719 3584 
Q 3081 3584 3359 3409 
Q 3638 3234 3781 2919 
z
" transform="scale(0.015625)"/>
      <path id="DejaVuSans-Bold-61" d="M 2106 1575 
Q 1756 1575 1579 1456 
Q 1403 1338 1403 1106 
Q 1403 894 1545 773 
Q 1688 653 1941 653 
Q 2256 653 2472 879 
Q 2688 1106 2688 1447 
L 2688 1575 
L 2106 1575 
z
M 3816 1997 
L 3816 0 
L 2688 0 
L 2688 519 
Q 2463 200 2181 54 
Q 1900 -91 1497 -91 
Q 953 -91 614 226 
Q 275 544 275 1050 
Q 275 1666 698 1953 
Q 1122 2241 2028 2241 
L 2688 2241 
L 2688 2328 
Q 2688 2594 2478 2717 
Q 2269 2841 1825 2841 
Q 1466 2841 1156 2769 
Q 847 2697 581 2553 
L 581 3406 
Q 941 3494 1303 3539 
Q 1666 3584 2028 3584 
Q 2975 3584 3395 3211 
Q 3816 2838 3816 1997 
z
" transform="scale(0.015625)"/>
      <path id="DejaVuSans-Bold-72" d="M 3138 2547 
Q 2991 2616 2845 2648 
Q 2700 2681 2553 2681 
Q 2122 2681 1889 2404 
Q 1656 2128 1656 1613 
L 1656 0 
L 538 0 
L 538 3500 
L 1656 3500 
L 1656 2925 
Q 1872 3269 2151 3426 
Q 2431 3584 2822 3584 
Q 2878 3584 2943 3579 
Q 3009 3575 3134 3559 
L 3138 2547 
z
" transform="scale(0.015625)"/>
      <path id="DejaVuSans-Bold-6b" d="M 538 4863 
L 1656 4863 
L 1656 2216 
L 2944 3500 
L 4244 3500 
L 2534 1894 
L 4378 0 
L 3022 0 
L 1656 1459 
L 1656 0 
L 538 0 
L 538 4863 
z
" transform="scale(0.015625)"/>
      <path id="DejaVuSans-Bold-3a" d="M 716 3500 
L 1844 3500 
L 1844 2291 
L 716 2291 
L 716 3500 
z
M 716 1209 
L 1844 1209 
L 1844 0 
L 716 0 
L 716 1209 
z
" transform="scale(0.015625)"/>
      <path id="DejaVuSans-Bold-20" transform="scale(0.015625)"/>
      <path id="DejaVuSans-Bold-32" d="M 1844 884 
L 3897 884 
L 3897 0 
L 506 0 
L 506 884 
L 2209 2388 
Q 2438 2594 2547 2791 
Q 2656 2988 2656 3200 
Q 2656 3528 2436 3728 
Q 2216 3928 1850 3928 
Q 1569 3928 1234 3808 
Q 900 3688 519 3450 
L 519 4475 
Q 925 4609 1322 4679 
Q 1719 4750 2100 4750 
Q 2938 4750 3402 4381 
Q 3866 4013 3866 3353 
Q 3866 2972 3669 2642 
Q 3472 2313 2841 1759 
L 1844 884 
z
" transform="scale(0.015625)"/>
      <path id="DejaVuSans-Bold-30" d="M 2944 2338 
Q 2944 3213 2780 3570 
Q 2616 3928 2228 3928 
Q 1841 3928 1675 3570 
Q 1509 3213 1509 2338 
Q 1509 1453 1675 1090 
Q 1841 728 2228 728 
Q 2613 728 2778 1090 
Q 2944 1453 2944 2338 
z
M 4147 2328 
Q 4147 1169 3647 539 
Q 3147 -91 2228 -91 
Q 1306 -91 806 539 
Q 306 1169 306 2328 
Q 306 3491 806 4120 
Q 1306 4750 2228 4750 
Q 3147 4750 3647 4120 
Q 4147 3491 4147 2328 
z
" transform="scale(0.015625)"/>
      <path id="DejaVuSans-Bold-51" d="M 2847 -84 
L 2753 -84 
Q 1600 -84 959 553 
Q 319 1191 319 2328 
Q 319 3463 958 4106 
Q 1597 4750 2719 4750 
Q 3853 4750 4486 4112 
Q 5119 3475 5119 2328 
Q 5119 1541 4783 972 
Q 4447 403 3816 116 
L 4756 -934 
L 3609 -934 
L 2847 -84 
z
M 2719 3878 
Q 2169 3878 1866 3472 
Q 1563 3066 1563 2328 
Q 1563 1578 1859 1179 
Q 2156 781 2719 781 
Q 3272 781 3575 1187 
Q 3878 1594 3878 2328 
Q 3878 3066 3575 3472 
Q 3272 3878 2719 3878 
z
" transform="scale(0.015625)"/>
      <path id="DejaVuSans-Bold-75" d="M 500 1363 
L 500 3500 
L 1625 3500 
L 1625 3150 
Q 1625 2866 1622 2436 
Q 1619 2006 1619 1863 
Q 1619 1441 1641 1255 
Q 1663 1069 1716 984 
Q 1784 875 1895 815 
Q 2006 756 2150 756 
Q 2500 756 2700 1025 
Q 2900 1294 2900 1772 
L 2900 3500 
L 4019 3500 
L 4019 0 
L 2900 0 
L 2900 506 
Q 2647 200 2364 54 
Q 2081 -91 1741 -91 
Q 1134 -91 817 281 
Q 500 653 500 1363 
z
" transform="scale(0.015625)"/>
      <path id="DejaVuSans-Bold-79" d="M 78 3500 
L 1197 3500 
L 2138 1125 
L 2938 3500 
L 4056 3500 
L 2584 -331 
Q 2363 -916 2067 -1148 
Q 1772 -1381 1288 -1381 
L 641 -1381 
L 641 -647 
L 991 -647 
Q 1275 -647 1404 -556 
Q 1534 -466 1606 -231 
L 1638 -134 
L 78 3500 
z
" transform="scale(0.015625)"/>
      <path id="DejaVuSans-Bold-54" d="M 31 4666 
L 4331 4666 
L 4331 3756 
L 2784 3756 
L 2784 0 
L 1581 0 
L 1581 3756 
L 31 3756 
L 31 4666 
z
" transform="scale(0.015625)"/>
      <path id="DejaVuSans-Bold-73" d="M 3272 3391 
L 3272 2541 
Q 2913 2691 2578 2766 
Q 2244 2841 1947 2841 
Q 1628 2841 1473 2761 
Q 1319 2681 1319 2516 
Q 1319 2381 1436 2309 
Q 1553 2238 1856 2203 
L 2053 2175 
Q 2913 2066 3209 1816 
Q 3506 1566 3506 1031 
Q 3506 472 3093 190 
Q 2681 -91 1863 -91 
Q 1516 -91 1145 -36 
Q 775 19 384 128 
L 384 978 
Q 719 816 1070 734 
Q 1422 653 1784 653 
Q 2113 653 2278 743 
Q 2444 834 2444 1013 
Q 2444 1163 2330 1236 
Q 2216 1309 1875 1350 
L 1678 1375 
Q 931 1469 631 1722 
Q 331 1975 331 2491 
Q 331 3047 712 3315 
Q 1094 3584 1881 3584 
Q 2191 3584 2531 3537 
Q 2872 3491 3272 3391 
z
" transform="scale(0.015625)"/>
      <path id="DejaVuSans-Bold-74" d="M 1759 4494 
L 1759 3500 
L 2913 3500 
L 2913 2700 
L 1759 2700 
L 1759 1216 
Q 1759 972 1856 886 
Q 1953 800 2241 800 
L 2816 800 
L 2816 0 
L 1856 0 
Q 1194 0 917 276 
Q 641 553 641 1216 
L 641 2700 
L 84 2700 
L 84 3500 
L 641 3500 
L 641 4494 
L 1759 4494 
z
" transform="scale(0.015625)"/>
      <path id="DejaVuSans-Bold-53" d="M 3834 4519 
L 3834 3531 
Q 3450 3703 3084 3790 
Q 2719 3878 2394 3878 
Q 1963 3878 1756 3759 
Q 1550 3641 1550 3391 
Q 1550 3203 1689 3098 
Q 1828 2994 2194 2919 
L 2706 2816 
Q 3484 2659 3812 2340 
Q 4141 2022 4141 1434 
Q 4141 663 3683 286 
Q 3225 -91 2284 -91 
Q 1841 -91 1394 -6 
Q 947 78 500 244 
L 500 1259 
Q 947 1022 1364 901 
Q 1781 781 2169 781 
Q 2563 781 2772 912 
Q 2981 1044 2981 1288 
Q 2981 1506 2839 1625 
Q 2697 1744 2272 1838 
L 1806 1941 
Q 1106 2091 782 2419 
Q 459 2747 459 3303 
Q 459 4000 909 4375 
Q 1359 4750 2203 4750 
Q 2588 4750 2994 4692 
Q 3400 4634 3834 4519 
z
" transform="scale(0.015625)"/>
     </defs>
     <use xlink:href="#DejaVuSans-Bold-42"/>
     <use xlink:href="#DejaVuSans-Bold-65" transform="translate(76.220703 0)"/>
     <use xlink:href="#DejaVuSans-Bold-6e" transform="translate(144.042969 0)"/>
     <use xlink:href="#DejaVuSans-Bold-63" transform="translate(215.234375 0)"/>
     <use xlink:href="#DejaVuSans-Bold-68" transform="translate(274.511719 0)"/>
     <use xlink:href="#DejaVuSans-Bold-6d" transform="translate(345.703125 0)"/>
     <use xlink:href="#DejaVuSans-Bold-61" transform="translate(449.902344 0)"/>
     <use xlink:href="#DejaVuSans-Bold-72" transform="translate(517.382812 0)"/>
     <use xlink:href="#DejaVuSans-Bold-6b" transform="translate(566.699219 0)"/>
     <use xlink:href="#DejaVuSans-Bold-3a" transform="translate(633.203125 0)"/>
     <use xlink:href="#DejaVuSans-Bold-20" transform="translate(673.193359 0)"/>
     <use xlink:href="#DejaVuSans-Bold-32" transform="translate(708.007812 0)"/>
     <use xlink:href="#DejaVuSans-Bold-30" transform="translate(777.587891 0)"/>
     <use xlink:href="#DejaVuSans-Bold-30" transform="translate(847.167969 0)"/>
     <use xlink:href="#DejaVuSans-Bold-20" transform="translate(916.748047 0)"/>
     <use xlink:href="#DejaVuSans-Bold-51" transform="translate(951.5625 0)"/>
     <use xlink:href="#DejaVuSans-Bold-75" transform="translate(1036.572266 0)"/>
     <use xlink:href="#DejaVuSans-Bold-65" transform="translate(1107.763672 0)"/>
     <use xlink:href="#DejaVuSans-Bold-72" transform="translate(1175.585938 0)"/>
     <use xlink:href="#DejaVuSans-Bold-79" transform="translate(1224.902344 0)"/>
     <use xlink:href="#DejaVuSans-Bold-20" transform="translate(1290.087891 0)"/>
     <use xlink:href="#DejaVuSans-Bold-54" transform="translate(1324.902344 0)"/>
     <use xlink:href="#DejaVuSans-Bold-65" transform="translate(1379.865234 0)"/>
     <use xlink:href="#DejaVuSans-Bold-73" transform="translate(1447.6875 0)"/>
     <use xlink:href="#DejaVuSans-Bold-74" transform="translate(1507.208984 0)"/>
     <use xlink:href="#DejaVuSans-Bold-20" transform="translate(1555.011719 0)"/>
     <use xlink:href="#DejaVuSans-Bold-53" transform="translate(1589.826172 0)"/>
     <use xlink:href="#DejaVuSans-Bold-65" transform="translate(1661.847656 0)"/>
     <use xlink:href="#DejaVuSans-Bold-74" transform="translate(1729.669922 0)"/>
    </g>
   </g>
   <g id="text_2">
    <!-- Internal validation, May 2026 -->
    <g style="fill: #64748b" transform="translate(341.46125 65.828571) scale(0.1 -0.1)">
     <defs>
      <path id="DejaVuSans-Oblique-49" d="M 1081 4666 
L 1716 4666 
L 806 0 
L 172 0 
L 1081 4666 
z
" transform="scale(0.015625)"/>
      <path id="DejaVuSans-Oblique-6e" d="M 3566 2113 
L 3156 0 
L 2578 0 
L 2988 2091 
Q 3016 2238 3031 2350 
Q 3047 2463 3047 2528 
Q 3047 2791 2881 2937 
Q 2716 3084 2419 3084 
Q 1956 3084 1622 2776 
Q 1288 2469 1184 1941 
L 800 0 
L 225 0 
L 903 3500 
L 1478 3500 
L 1363 2950 
Q 1603 3253 1940 3418 
Q 2278 3584 2650 3584 
Q 3113 3584 3367 3334 
Q 3622 3084 3622 2631 
Q 3622 2519 3608 2391 
Q 3594 2263 3566 2113 
z
" transform="scale(0.015625)"/>
      <path id="DejaVuSans-Oblique-74" d="M 2706 3500 
L 2619 3053 
L 1472 3053 
L 1100 1153 
Q 1081 1047 1072 975 
Q 1063 903 1063 863 
Q 1063 663 1183 572 
Q 1303 481 1569 481 
L 2150 481 
L 2053 0 
L 1503 0 
Q 991 0 739 200 
Q 488 400 488 806 
Q 488 878 497 964 
Q 506 1050 525 1153 
L 897 3053 
L 409 3053 
L 500 3500 
L 978 3500 
L 1172 4494 
L 1747 4494 
L 1556 3500 
L 2706 3500 
z
" transform="scale(0.015625)"/>
      <path id="DejaVuSans-Oblique-65" d="M 3078 2063 
Q 3088 2113 3092 2166 
Q 3097 2219 3097 2272 
Q 3097 2653 2873 2875 
Q 2650 3097 2266 3097 
Q 1838 3097 1509 2826 
Q 1181 2556 1013 2059 
L 3078 2063 
z
M 3578 1613 
L 903 1613 
Q 884 1494 878 1425 
Q 872 1356 872 1306 
Q 872 872 1139 634 
Q 1406 397 1894 397 
Q 2269 397 2603 481 
Q 2938 566 3225 728 
L 3116 159 
Q 2806 34 2476 -28 
Q 2147 -91 1806 -91 
Q 1078 -91 686 257 
Q 294 606 294 1247 
Q 294 1794 489 2264 
Q 684 2734 1063 3103 
Q 1306 3334 1642 3459 
Q 1978 3584 2356 3584 
Q 2950 3584 3301 3228 
Q 3653 2872 3653 2272 
Q 3653 2128 3634 1964 
Q 3616 1800 3578 1613 
z
" transform="scale(0.015625)"/>
      <path id="DejaVuSans-Oblique-72" d="M 2853 2969 
Q 2766 3016 2653 3041 
Q 2541 3066 2413 3066 
Q 1953 3066 1609 2717 
Q 1266 2369 1153 1784 
L 800 0 
L 225 0 
L 909 3500 
L 1484 3500 
L 1375 2956 
Q 1603 3259 1920 3421 
Q 2238 3584 2597 3584 
Q 2691 3584 2781 3573 
Q 2872 3563 2963 3538 
L 2853 2969 
z
" transform="scale(0.015625)"/>
      <path id="DejaVuSans-Oblique-61" d="M 3438 1997 
L 3047 0 
L 2472 0 
L 2578 531 
Q 2325 219 2001 64 
Q 1678 -91 1281 -91 
Q 834 -91 548 182 
Q 263 456 263 884 
Q 263 1497 752 1853 
Q 1241 2209 2100 2209 
L 2900 2209 
L 2931 2363 
Q 2938 2388 2941 2417 
Q 2944 2447 2944 2509 
Q 2944 2788 2717 2942 
Q 2491 3097 2081 3097 
Q 1800 3097 1504 3025 
Q 1209 2953 897 2809 
L 997 3341 
Q 1322 3463 1633 3523 
Q 1944 3584 2234 3584 
Q 2853 3584 3176 3315 
Q 3500 3047 3500 2534 
Q 3500 2431 3484 2292 
Q 3469 2153 3438 1997 
z
M 2816 1759 
L 2241 1759 
Q 1534 1759 1195 1570 
Q 856 1381 856 984 
Q 856 709 1029 553 
Q 1203 397 1509 397 
Q 1978 397 2328 733 
Q 2678 1069 2791 1631 
L 2816 1759 
z
" transform="scale(0.015625)"/>
      <path id="DejaVuSans-Oblique-6c" d="M 1172 4863 
L 1747 4863 
L 800 0 
L 225 0 
L 1172 4863 
z
" transform="scale(0.015625)"/>
      <path id="DejaVuSans-Oblique-20" transform="scale(0.015625)"/>
      <path id="DejaVuSans-Oblique-76" d="M 459 3500 
L 1069 3500 
L 1581 525 
L 3256 3500 
L 3866 3500 
L 1875 0 
L 1100 0 
L 459 3500 
z
" transform="scale(0.015625)"/>
      <path id="DejaVuSans-Oblique-69" d="M 1172 4863 
L 1747 4863 
L 1606 4134 
L 1031 4134 
L 1172 4863 
z
M 909 3500 
L 1484 3500 
L 800 0 
L 225 0 
L 909 3500 
z
" transform="scale(0.015625)"/>
      <path id="DejaVuSans-Oblique-64" d="M 2675 525 
Q 2444 222 2128 65 
Q 1813 -91 1428 -91 
Q 903 -91 598 267 
Q 294 625 294 1247 
Q 294 1766 478 2236 
Q 663 2706 1013 3078 
Q 1244 3325 1534 3454 
Q 1825 3584 2144 3584 
Q 2481 3584 2739 3421 
Q 2997 3259 3138 2956 
L 3513 4863 
L 4091 4863 
L 3144 0 
L 2566 0 
L 2675 525 
z
M 891 1350 
Q 891 897 1095 644 
Q 1300 391 1663 391 
Q 1931 391 2161 520 
Q 2391 650 2566 903 
Q 2750 1166 2856 1509 
Q 2963 1853 2963 2188 
Q 2963 2622 2758 2865 
Q 2553 3109 2194 3109 
Q 1922 3109 1687 2981 
Q 1453 2853 1288 2613 
Q 1106 2353 998 2009 
Q 891 1666 891 1350 
z
" transform="scale(0.015625)"/>
      <path id="DejaVuSans-Oblique-6f" d="M 1625 -91 
Q 1009 -91 651 289 
Q 294 669 294 1325 
Q 294 1706 417 2101 
Q 541 2497 738 2766 
Q 1047 3184 1428 3384 
Q 1809 3584 2291 3584 
Q 2888 3584 3255 3212 
Q 3622 2841 3622 2241 
Q 3622 1825 3500 1412 
Q 3378 1000 3181 728 
Q 2875 309 2494 109 
Q 2113 -91 1625 -91 
z
M 891 1344 
Q 891 869 1089 633 
Q 1288 397 1691 397 
Q 2269 397 2648 901 
Q 3028 1406 3028 2181 
Q 3028 2634 2825 2865 
Q 2622 3097 2228 3097 
Q 1903 3097 1650 2945 
Q 1397 2794 1197 2484 
Q 1050 2253 970 1956 
Q 891 1659 891 1344 
z
" transform="scale(0.015625)"/>
      <path id="DejaVuSans-Oblique-2c" d="M 575 794 
L 1234 794 
L 1131 256 
L 422 -744 
L 19 -744 
L 469 256 
L 575 794 
z
" transform="scale(0.015625)"/>
      <path id="DejaVuSans-Oblique-4d" d="M 1081 4666 
L 2028 4666 
L 2572 1522 
L 4378 4666 
L 5350 4666 
L 4441 0 
L 3828 0 
L 4622 4091 
L 2791 897 
L 2175 897 
L 1581 4103 
L 788 0 
L 172 0 
L 1081 4666 
z
" transform="scale(0.015625)"/>
      <path id="DejaVuSans-Oblique-79" d="M 1588 -325 
Q 1188 -997 936 -1164 
Q 684 -1331 294 -1331 
L -159 -1331 
L -63 -850 
L 269 -850 
Q 509 -850 678 -719 
Q 847 -588 1056 -206 
L 1234 128 
L 459 3500 
L 1069 3500 
L 1650 819 
L 3256 3500 
L 3859 3500 
L 1588 -325 
z
" transform="scale(0.015625)"/>
      <path id="DejaVuSans-Oblique-32" d="M 2950 2253 
L 934 525 
L 3163 525 
L 3053 0 
L 25 0 
L 128 531 
L 2234 2338 
Q 2656 2703 2832 2979 
Q 3009 3256 3009 3547 
Q 3009 3850 2796 4040 
Q 2584 4231 2241 4231 
Q 1944 4231 1581 4125 
Q 1219 4019 806 3816 
L 922 4441 
Q 1309 4594 1662 4672 
Q 2016 4750 2316 4750 
Q 2928 4750 3301 4425 
Q 3675 4100 3675 3572 
Q 3675 3216 3497 2892 
Q 3319 2569 2950 2253 
z
" transform="scale(0.015625)"/>
      <path id="DejaVuSans-Oblique-30" d="M 2444 4750 
Q 3078 4750 3414 4328 
Q 3750 3906 3750 3116 
Q 3750 2516 3592 1923 
Q 3434 1331 3150 863 
Q 2859 394 2467 151 
Q 2075 -91 1600 -91 
Q 988 -91 653 334 
Q 319 759 319 1544 
Q 319 2138 480 2733 
Q 641 3328 928 3794 
Q 1216 4263 1602 4506 
Q 1988 4750 2444 4750 
z
M 2406 4250 
Q 2169 4250 1955 4123 
Q 1741 3997 1569 3750 
Q 1281 3338 1111 2720 
Q 941 2103 941 1453 
Q 941 938 1123 673 
Q 1306 409 1663 409 
Q 1913 409 2125 536 
Q 2338 663 2509 909 
Q 2794 1319 2961 1936 
Q 3128 2553 3128 3206 
Q 3128 3722 2945 3986 
Q 2763 4250 2406 4250 
z
" transform="scale(0.015625)"/>
      <path id="DejaVuSans-Oblique-36" d="M 2938 1728 
Q 2938 2125 2734 2354 
Q 2531 2584 2181 2584 
Q 1697 2584 1367 2211 
Q 1038 1838 1038 1288 
Q 1038 875 1239 642 
Q 1441 409 1797 409 
Q 2284 409 2611 792 
Q 2938 1175 2938 1728 
z
M 3788 4556 
L 3681 3981 
Q 3500 4100 3265 4162 
Q 3031 4225 2766 4225 
Q 2119 4225 1726 3819 
Q 1334 3413 1141 2547 
Q 1369 2813 1670 2948 
Q 1972 3084 2322 3084 
Q 2894 3084 3233 2754 
Q 3572 2425 3572 1869 
Q 3572 1413 3405 1020 
Q 3238 628 2919 331 
Q 2700 128 2409 18 
Q 2119 -91 1791 -91 
Q 1147 -91 775 318 
Q 403 728 403 1441 
Q 403 2103 573 2717 
Q 744 3331 1050 3781 
Q 1372 4256 1830 4503 
Q 2288 4750 2841 4750 
Q 3084 4750 3321 4701 
Q 3559 4653 3788 4556 
z
" transform="scale(0.015625)"/>
     </defs>
     <use xlink:href="#DejaVuSans-Oblique-49"/>
     <use xlink:href="#DejaVuSans-Oblique-6e" transform="translate(29.492188 0)"/>
     <use xlink:href="#DejaVuSans-Oblique-74" transform="translate(92.871094 0)"/>
     <use xlink:href="#DejaVuSans-Oblique-65" transform="translate(132.080078 0)"/>
     <use xlink:href="#DejaVuSans-Oblique-72" transform="translate(193.603516 0)"/>
     <use xlink:href="#DejaVuSans-Oblique-6e" transform="translate(234.716797 0)"/>
     <use xlink:href="#DejaVuSans-Oblique-61" transform="translate(298.095703 0)"/>
     <use xlink:href="#DejaVuSans-Oblique-6c" transform="translate(359.375 0)"/>
     <use xlink:href="#DejaVuSans-Oblique-20" transform="translate(387.158203 0)"/>
     <use xlink:href="#DejaVuSans-Oblique-76" transform="translate(418.945312 0)"/>
     <use xlink:href="#DejaVuSans-Oblique-61" transform="translate(478.125 0)"/>
     <use xlink:href="#DejaVuSans-Oblique-6c" transform="translate(539.404297 0)"/>
     <use xlink:href="#DejaVuSans-Oblique-69" transform="translate(567.1875 0)"/>
     <use xlink:href="#DejaVuSans-Oblique-64" transform="translate(594.970703 0)"/>
     <use xlink:href="#DejaVuSans-Oblique-61" transform="translate(658.447266 0)"/>
     <use xlink:href="#DejaVuSans-Oblique-74" transform="translate(719.726562 0)"/>
     <use xlink:href="#DejaVuSans-Oblique-69" transform="translate(758.935547 0)"/>
     <use xlink:href="#DejaVuSans-Oblique-6f" transform="translate(786.71875 0)"/>
     <use xlink:href="#DejaVuSans-Oblique-6e" transform="translate(847.900391 0)"/>
     <use xlink:href="#DejaVuSans-Oblique-2c" transform="translate(911.279297 0)"/>
     <use xlink:href="#DejaVuSans-Oblique-20" transform="translate(943.066406 0)"/>
     <use xlink:href="#DejaVuSans-Oblique-4d" transform="translate(974.853516 0)"/>
     <use xlink:href="#DejaVuSans-Oblique-61" transform="translate(1061.132812 0)"/>
     <use xlink:href="#DejaVuSans-Oblique-79" transform="translate(1122.412109 0)"/>
     <use xlink:href="#DejaVuSans-Oblique-20" transform="translate(1181.591797 0)"/>
     <use xlink:href="#DejaVuSans-Oblique-32" transform="translate(1213.378906 0)"/>
     <use xlink:href="#DejaVuSans-Oblique-30" transform="translate(1277.001953 0)"/>
     <use xlink:href="#DejaVuSans-Oblique-32" transform="translate(1340.625 0)"/>
     <use xlink:href="#DejaVuSans-Oblique-36" transform="translate(1404.248047 0)"/>
    </g>
   </g>
   <g id="text_3">
    <!-- Exact Tier Match -->
    <g style="fill: #1e293b" transform="translate(20.7885 109.627946) scale(0.1 -0.1)">
     <defs>
      <path id="DejaVuSans-Bold-45" d="M 588 4666 
L 3834 4666 
L 3834 3756 
L 1791 3756 
L 1791 2888 
L 3713 2888 
L 3713 1978 
L 1791 1978 
L 1791 909 
L 3903 909 
L 3903 0 
L 588 0 
L 588 4666 
z
" transform="scale(0.015625)"/>
      <path id="DejaVuSans-Bold-78" d="M 1422 1791 
L 159 3500 
L 1344 3500 
L 2059 2463 
L 2784 3500 
L 3969 3500 
L 2706 1797 
L 4031 0 
L 2847 0 
L 2059 1106 
L 1281 0 
L 97 0 
L 1422 1791 
z
" transform="scale(0.015625)"/>
      <path id="DejaVuSans-Bold-69" d="M 538 3500 
L 1656 3500 
L 1656 0 
L 538 0 
L 538 3500 
z
M 538 4863 
L 1656 4863 
L 1656 3950 
L 538 3950 
L 538 4863 
z
" transform="scale(0.015625)"/>
      <path id="DejaVuSans-Bold-4d" d="M 588 4666 
L 2119 4666 
L 3181 2169 
L 4250 4666 
L 5778 4666 
L 5778 0 
L 4641 0 
L 4641 3413 
L 3566 897 
L 2803 897 
L 1728 3413 
L 1728 0 
L 588 0 
L 588 4666 
z
" transform="scale(0.015625)"/>
     </defs>
     <use xlink:href="#DejaVuSans-Bold-45"/>
     <use xlink:href="#DejaVuSans-Bold-78" transform="translate(68.310547 0)"/>
     <use xlink:href="#DejaVuSans-Bold-61" transform="translate(132.8125 0)"/>
     <use xlink:href="#DejaVuSans-Bold-63" transform="translate(200.292969 0)"/>
     <use xlink:href="#DejaVuSans-Bold-74" transform="translate(259.570312 0)"/>
     <use xlink:href="#DejaVuSans-Bold-20" transform="translate(307.373047 0)"/>
     <use xlink:href="#DejaVuSans-Bold-54" transform="translate(342.1875 0)"/>
     <use xlink:href="#DejaVuSans-Bold-69" transform="translate(410.400391 0)"/>
     <use xlink:href="#DejaVuSans-Bold-65" transform="translate(444.677734 0)"/>
     <use xlink:href="#DejaVuSans-Bold-72" transform="translate(512.5 0)"/>
     <use xlink:href="#DejaVuSans-Bold-20" transform="translate(561.816406 0)"/>
     <use xlink:href="#DejaVuSans-Bold-4d" transform="translate(596.630859 0)"/>
     <use xlink:href="#DejaVuSans-Bold-61" transform="translate(696.142578 0)"/>
     <use xlink:href="#DejaVuSans-Bold-74" transform="translate(763.623047 0)"/>
     <use xlink:href="#DejaVuSans-Bold-63" transform="translate(811.425781 0)"/>
     <use xlink:href="#DejaVuSans-Bold-68" transform="translate(870.703125 0)"/>
    </g>
   </g>
   <g id="text_4">
    <!-- 64.5% -->
    <g style="fill: #2563eb" transform="translate(808.9215 109.903884) scale(0.11 -0.11)">
     <defs>
      <path id="DejaVuSans-Bold-36" d="M 2316 2303 
Q 2000 2303 1842 2098 
Q 1684 1894 1684 1484 
Q 1684 1075 1842 870 
Q 2000 666 2316 666 
Q 2634 666 2792 870 
Q 2950 1075 2950 1484 
Q 2950 1894 2792 2098 
Q 2634 2303 2316 2303 
z
M 3803 4544 
L 3803 3681 
Q 3506 3822 3243 3889 
Q 2981 3956 2731 3956 
Q 2194 3956 1894 3657 
Q 1594 3359 1544 2772 
Q 1750 2925 1990 3001 
Q 2231 3078 2516 3078 
Q 3231 3078 3670 2659 
Q 4109 2241 4109 1563 
Q 4109 813 3618 361 
Q 3128 -91 2303 -91 
Q 1394 -91 895 523 
Q 397 1138 397 2266 
Q 397 3422 980 4083 
Q 1563 4744 2578 4744 
Q 2900 4744 3203 4694 
Q 3506 4644 3803 4544 
z
" transform="scale(0.015625)"/>
      <path id="DejaVuSans-Bold-34" d="M 2356 3675 
L 1038 1722 
L 2356 1722 
L 2356 3675 
z
M 2156 4666 
L 3494 4666 
L 3494 1722 
L 4159 1722 
L 4159 850 
L 3494 850 
L 3494 0 
L 2356 0 
L 2356 850 
L 288 850 
L 288 1881 
L 2156 4666 
z
" transform="scale(0.015625)"/>
      <path id="DejaVuSans-Bold-2e" d="M 653 1209 
L 1778 1209 
L 1778 0 
L 653 0 
L 653 1209 
z
" transform="scale(0.015625)"/>
      <path id="DejaVuSans-Bold-35" d="M 678 4666 
L 3669 4666 
L 3669 3781 
L 1638 3781 
L 1638 3059 
Q 1775 3097 1914 3117 
Q 2053 3138 2203 3138 
Q 3056 3138 3531 2711 
Q 4006 2284 4006 1522 
Q 4006 766 3489 337 
Q 2972 -91 2053 -91 
Q 1656 -91 1267 -14 
Q 878 63 494 219 
L 494 1166 
Q 875 947 1217 837 
Q 1559 728 1863 728 
Q 2300 728 2551 942 
Q 2803 1156 2803 1522 
Q 2803 1891 2551 2103 
Q 2300 2316 1863 2316 
Q 1603 2316 1309 2248 
Q 1016 2181 678 2041 
L 678 4666 
z
" transform="scale(0.015625)"/>
      <path id="DejaVuSans-Bold-25" d="M 4959 1925 
Q 4738 1925 4616 1733 
Q 4494 1541 4494 1184 
Q 4494 825 4614 633 
Q 4734 441 4959 441 
Q 5184 441 5303 633 
Q 5422 825 5422 1184 
Q 5422 1541 5301 1733 
Q 5181 1925 4959 1925 
z
M 4959 2450 
Q 5541 2450 5875 2112 
Q 6209 1775 6209 1184 
Q 6209 594 5875 251 
Q 5541 -91 4959 -91 
Q 4378 -91 4042 251 
Q 3706 594 3706 1184 
Q 3706 1772 4042 2111 
Q 4378 2450 4959 2450 
z
M 2094 -91 
L 1403 -91 
L 4319 4750 
L 5013 4750 
L 2094 -91 
z
M 1453 4750 
Q 2034 4750 2367 4411 
Q 2700 4072 2700 3481 
Q 2700 2891 2367 2550 
Q 2034 2209 1453 2209 
Q 872 2209 539 2550 
Q 206 2891 206 3481 
Q 206 4072 539 4411 
Q 872 4750 1453 4750 
z
M 1453 4225 
Q 1228 4225 1106 4031 
Q 984 3838 984 3481 
Q 984 3122 1106 2926 
Q 1228 2731 1453 2731 
Q 1678 2731 1798 2926 
Q 1919 3122 1919 3481 
Q 1919 3838 1797 4031 
Q 1675 4225 1453 4225 
z
" transform="scale(0.015625)"/>
     </defs>
     <use xlink:href="#DejaVuSans-Bold-36"/>
     <use xlink:href="#DejaVuSans-Bold-34" transform="translate(69.580078 0)"/>
     <use xlink:href="#DejaVuSans-Bold-2e" transform="translate(139.160156 0)"/>
     <use xlink:href="#DejaVuSans-Bold-35" transform="translate(177.148438 0)"/>
     <use xlink:href="#DejaVuSans-Bold-25" transform="translate(246.728516 0)"/>
    </g>
   </g>
   <g id="text_5">
    <!-- +-1 Tier Accuracy -->
    <g style="fill: #1e293b" transform="translate(20.7885 168.217455) scale(0.1 -0.1)">
     <defs>
      <path id="DejaVuSans-Bold-2b" d="M 3053 4013 
L 3053 2375 
L 4684 2375 
L 4684 1638 
L 3053 1638 
L 3053 0 
L 2309 0 
L 2309 1638 
L 678 1638 
L 678 2375 
L 2309 2375 
L 2309 4013 
L 3053 4013 
z
" transform="scale(0.015625)"/>
      <path id="DejaVuSans-Bold-2d" d="M 347 2297 
L 2309 2297 
L 2309 1388 
L 347 1388 
L 347 2297 
z
" transform="scale(0.015625)"/>
      <path id="DejaVuSans-Bold-31" d="M 750 831 
L 1813 831 
L 1813 3847 
L 722 3622 
L 722 4441 
L 1806 4666 
L 2950 4666 
L 2950 831 
L 4013 831 
L 4013 0 
L 750 0 
L 750 831 
z
" transform="scale(0.015625)"/>
      <path id="DejaVuSans-Bold-41" d="M 3419 850 
L 1538 850 
L 1241 0 
L 31 0 
L 1759 4666 
L 3194 4666 
L 4922 0 
L 3713 0 
L 3419 850 
z
M 1838 1716 
L 3116 1716 
L 2478 3572 
L 1838 1716 
z
" transform="scale(0.015625)"/>
     </defs>
     <use xlink:href="#DejaVuSans-Bold-2b"/>
     <use xlink:href="#DejaVuSans-Bold-2d" transform="translate(83.789062 0)"/>
     <use xlink:href="#DejaVuSans-Bold-31" transform="translate(125.292969 0)"/>
     <use xlink:href="#DejaVuSans-Bold-20" transform="translate(194.873047 0)"/>
     <use xlink:href="#DejaVuSans-Bold-54" transform="translate(229.6875 0)"/>
     <use xlink:href="#DejaVuSans-Bold-69" transform="translate(297.900391 0)"/>
     <use xlink:href="#DejaVuSans-Bold-65" transform="translate(332.177734 0)"/>
     <use xlink:href="#DejaVuSans-Bold-72" transform="translate(400 0)"/>
     <use xlink:href="#DejaVuSans-Bold-20" transform="translate(449.316406 0)"/>
     <use xlink:href="#DejaVuSans-Bold-41" transform="translate(484.130859 0)"/>
     <use xlink:href="#DejaVuSans-Bold-63" transform="translate(561.523438 0)"/>
     <use xlink:href="#DejaVuSans-Bold-63" transform="translate(620.800781 0)"/>
     <use xlink:href="#DejaVuSans-Bold-75" transform="translate(680.078125 0)"/>
     <use xlink:href="#DejaVuSans-Bold-72" transform="translate(751.269531 0)"/>
     <use xlink:href="#DejaVuSans-Bold-61" transform="translate(800.585938 0)"/>
     <use xlink:href="#DejaVuSans-Bold-63" transform="translate(868.066406 0)"/>
     <use xlink:href="#DejaVuSans-Bold-79" transform="translate(927.34375 0)"/>
    </g>
   </g>
   <g id="text_6">
    <!-- 99.5% -->
    <g style="fill: #10b981" transform="translate(808.9215 168.532455) scale(0.11 -0.11)">
     <defs>
      <path id="DejaVuSans-Bold-39" d="M 641 103 
L 641 966 
Q 928 831 1190 764 
Q 1453 697 1709 697 
Q 2247 697 2547 995 
Q 2847 1294 2900 1881 
Q 2688 1725 2447 1647 
Q 2206 1569 1925 1569 
Q 1209 1569 770 1986 
Q 331 2403 331 3084 
Q 331 3838 820 4291 
Q 1309 4744 2131 4744 
Q 3044 4744 3544 4128 
Q 4044 3513 4044 2388 
Q 4044 1231 3459 570 
Q 2875 -91 1856 -91 
Q 1528 -91 1228 -42 
Q 928 6 641 103 
z
M 2125 2350 
Q 2441 2350 2600 2554 
Q 2759 2759 2759 3169 
Q 2759 3575 2600 3781 
Q 2441 3988 2125 3988 
Q 1809 3988 1650 3781 
Q 1491 3575 1491 3169 
Q 1491 2759 1650 2554 
Q 1809 2350 2125 2350 
z
" transform="scale(0.015625)"/>
     </defs>
     <use xlink:href="#DejaVuSans-Bold-39"/>
     <use xlink:href="#DejaVuSans-Bold-39" transform="translate(69.580078 0)"/>
     <use xlink:href="#DejaVuSans-Bold-2e" transform="translate(139.160156 0)"/>
     <use xlink:href="#DejaVuSans-Bold-35" transform="translate(177.148438 0)"/>
     <use xlink:href="#DejaVuSans-Bold-25" transform="translate(246.728516 0)"/>
    </g>
   </g>
   <g id="text_7">
    <!-- Free Tier Recall -->
    <g style="fill: #1e293b" transform="translate(20.7885 226.885089) scale(0.1 -0.1)">
     <defs>
      <path id="DejaVuSans-Bold-46" d="M 588 4666 
L 3834 4666 
L 3834 3756 
L 1791 3756 
L 1791 2888 
L 3713 2888 
L 3713 1978 
L 1791 1978 
L 1791 0 
L 588 0 
L 588 4666 
z
" transform="scale(0.015625)"/>
      <path id="DejaVuSans-Bold-52" d="M 2297 2597 
Q 2675 2597 2839 2737 
Q 3003 2878 3003 3200 
Q 3003 3519 2839 3656 
Q 2675 3794 2297 3794 
L 1791 3794 
L 1791 2597 
L 2297 2597 
z
M 1791 1766 
L 1791 0 
L 588 0 
L 588 4666 
L 2425 4666 
Q 3347 4666 3776 4356 
Q 4206 4047 4206 3378 
Q 4206 2916 3982 2619 
Q 3759 2322 3309 2181 
Q 3556 2125 3751 1926 
Q 3947 1728 4147 1325 
L 4800 0 
L 3519 0 
L 2950 1159 
Q 2778 1509 2601 1637 
Q 2425 1766 2131 1766 
L 1791 1766 
z
" transform="scale(0.015625)"/>
      <path id="DejaVuSans-Bold-6c" d="M 538 4863 
L 1656 4863 
L 1656 0 
L 538 0 
L 538 4863 
z
" transform="scale(0.015625)"/>
     </defs>
     <use xlink:href="#DejaVuSans-Bold-46"/>
     <use xlink:href="#DejaVuSans-Bold-72" transform="translate(61.935547 0)"/>
     <use xlink:href="#DejaVuSans-Bold-65" transform="translate(111.251953 0)"/>
     <use xlink:href="#DejaVuSans-Bold-65" transform="translate(179.074219 0)"/>
     <use xlink:href="#DejaVuSans-Bold-20" transform="translate(246.896484 0)"/>
     <use xlink:href="#DejaVuSans-Bold-54" transform="translate(281.710938 0)"/>
     <use xlink:href="#DejaVuSans-Bold-69" transform="translate(349.923828 0)"/>
     <use xlink:href="#DejaVuSans-Bold-65" transform="translate(384.201172 0)"/>
     <use xlink:href="#DejaVuSans-Bold-72" transform="translate(452.023438 0)"/>
     <use xlink:href="#DejaVuSans-Bold-20" transform="translate(501.339844 0)"/>
     <use xlink:href="#DejaVuSans-Bold-52" transform="translate(536.154297 0)"/>
     <use xlink:href="#DejaVuSans-Bold-65" transform="translate(613.15625 0)"/>
     <use xlink:href="#DejaVuSans-Bold-63" transform="translate(680.978516 0)"/>
     <use xlink:href="#DejaVuSans-Bold-61" transform="translate(740.255859 0)"/>
     <use xlink:href="#DejaVuSans-Bold-6c" transform="translate(807.736328 0)"/>
     <use xlink:href="#DejaVuSans-Bold-6c" transform="translate(842.013672 0)"/>
    </g>
   </g>
   <g id="text_8">
    <!-- 92.0% -->
    <g style="fill: #8b5cf6" transform="translate(808.9215 227.161027) scale(0.11 -0.11)">
     <use xlink:href="#DejaVuSans-Bold-39"/>
     <use xlink:href="#DejaVuSans-Bold-32" transform="translate(69.580078 0)"/>
     <use xlink:href="#DejaVuSans-Bold-2e" transform="translate(139.160156 0)"/>
     <use xlink:href="#DejaVuSans-Bold-30" transform="translate(177.148438 0)"/>
     <use xlink:href="#DejaVuSans-Bold-25" transform="translate(246.728516 0)"/>
    </g>
   </g>
   <g id="text_9">
    <!-- Expert Recall -->
    <g style="fill: #1e293b" transform="translate(20.7885 285.513661) scale(0.1 -0.1)">
     <defs>
      <path id="DejaVuSans-Bold-70" d="M 1656 506 
L 1656 -1331 
L 538 -1331 
L 538 3500 
L 1656 3500 
L 1656 2988 
Q 1888 3294 2169 3439 
Q 2450 3584 2816 3584 
Q 3463 3584 3878 3070 
Q 4294 2556 4294 1747 
Q 4294 938 3878 423 
Q 3463 -91 2816 -91 
Q 2450 -91 2169 54 
Q 1888 200 1656 506 
z
M 2400 2772 
Q 2041 2772 1848 2508 
Q 1656 2244 1656 1747 
Q 1656 1250 1848 986 
Q 2041 722 2400 722 
Q 2759 722 2948 984 
Q 3138 1247 3138 1747 
Q 3138 2247 2948 2509 
Q 2759 2772 2400 2772 
z
" transform="scale(0.015625)"/>
     </defs>
     <use xlink:href="#DejaVuSans-Bold-45"/>
     <use xlink:href="#DejaVuSans-Bold-78" transform="translate(68.310547 0)"/>
     <use xlink:href="#DejaVuSans-Bold-70" transform="translate(132.8125 0)"/>
     <use xlink:href="#DejaVuSans-Bold-65" transform="translate(204.394531 0)"/>
     <use xlink:href="#DejaVuSans-Bold-72" transform="translate(272.216797 0)"/>
     <use xlink:href="#DejaVuSans-Bold-74" transform="translate(321.533203 0)"/>
     <use xlink:href="#DejaVuSans-Bold-20" transform="translate(369.335938 0)"/>
     <use xlink:href="#DejaVuSans-Bold-52" transform="translate(404.150391 0)"/>
     <use xlink:href="#DejaVuSans-Bold-65" transform="translate(481.152344 0)"/>
     <use xlink:href="#DejaVuSans-Bold-63" transform="translate(548.974609 0)"/>
     <use xlink:href="#DejaVuSans-Bold-61" transform="translate(608.251953 0)"/>
     <use xlink:href="#DejaVuSans-Bold-6c" transform="translate(675.732422 0)"/>
     <use xlink:href="#DejaVuSans-Bold-6c" transform="translate(710.009766 0)"/>
    </g>
   </g>
   <g id="text_10">
    <!-- 45.0% -->
    <g style="fill: #f59e0b" transform="translate(808.9215 285.789598) scale(0.11 -0.11)">
     <use xlink:href="#DejaVuSans-Bold-34"/>
     <use xlink:href="#DejaVuSans-Bold-35" transform="translate(69.580078 0)"/>
     <use xlink:href="#DejaVuSans-Bold-2e" transform="translate(139.160156 0)"/>
     <use xlink:href="#DejaVuSans-Bold-30" transform="translate(177.148438 0)"/>
     <use xlink:href="#DejaVuSans-Bold-25" transform="translate(246.728516 0)"/>
    </g>
   </g>
   <g id="text_11">
    <!-- Savings vs Premium -->
    <g style="fill: #1e293b" transform="translate(20.7885 344.10317) scale(0.1 -0.1)">
     <defs>
      <path id="DejaVuSans-Bold-76" d="M 97 3500 
L 1216 3500 
L 2088 1081 
L 2956 3500 
L 4078 3500 
L 2700 0 
L 1472 0 
L 97 3500 
z
" transform="scale(0.015625)"/>
      <path id="DejaVuSans-Bold-67" d="M 2919 594 
Q 2688 288 2409 144 
Q 2131 0 1766 0 
Q 1125 0 706 504 
Q 288 1009 288 1791 
Q 288 2575 706 3076 
Q 1125 3578 1766 3578 
Q 2131 3578 2409 3434 
Q 2688 3291 2919 2981 
L 2919 3500 
L 4044 3500 
L 4044 353 
Q 4044 -491 3511 -936 
Q 2978 -1381 1966 -1381 
Q 1638 -1381 1331 -1331 
Q 1025 -1281 716 -1178 
L 716 -306 
Q 1009 -475 1290 -558 
Q 1572 -641 1856 -641 
Q 2406 -641 2662 -400 
Q 2919 -159 2919 353 
L 2919 594 
z
M 2181 2772 
Q 1834 2772 1640 2515 
Q 1447 2259 1447 1791 
Q 1447 1309 1634 1061 
Q 1822 813 2181 813 
Q 2531 813 2725 1069 
Q 2919 1325 2919 1791 
Q 2919 2259 2725 2515 
Q 2531 2772 2181 2772 
z
" transform="scale(0.015625)"/>
      <path id="DejaVuSans-Bold-50" d="M 588 4666 
L 2584 4666 
Q 3475 4666 3951 4270 
Q 4428 3875 4428 3144 
Q 4428 2409 3951 2014 
Q 3475 1619 2584 1619 
L 1791 1619 
L 1791 0 
L 588 0 
L 588 4666 
z
M 1791 3794 
L 1791 2491 
L 2456 2491 
Q 2806 2491 2997 2661 
Q 3188 2831 3188 3144 
Q 3188 3456 2997 3625 
Q 2806 3794 2456 3794 
L 1791 3794 
z
" transform="scale(0.015625)"/>
     </defs>
     <use xlink:href="#DejaVuSans-Bold-53"/>
     <use xlink:href="#DejaVuSans-Bold-61" transform="translate(72.021484 0)"/>
     <use xlink:href="#DejaVuSans-Bold-76" transform="translate(139.501953 0)"/>
     <use xlink:href="#DejaVuSans-Bold-69" transform="translate(204.6875 0)"/>
     <use xlink:href="#DejaVuSans-Bold-6e" transform="translate(238.964844 0)"/>
     <use xlink:href="#DejaVuSans-Bold-67" transform="translate(310.15625 0)"/>
     <use xlink:href="#DejaVuSans-Bold-73" transform="translate(381.738281 0)"/>
     <use xlink:href="#DejaVuSans-Bold-20" transform="translate(441.259766 0)"/>
     <use xlink:href="#DejaVuSans-Bold-76" transform="translate(476.074219 0)"/>
     <use xlink:href="#DejaVuSans-Bold-73" transform="translate(541.259766 0)"/>
     <use xlink:href="#DejaVuSans-Bold-20" transform="translate(600.78125 0)"/>
     <use xlink:href="#DejaVuSans-Bold-50" transform="translate(635.595703 0)"/>
     <use xlink:href="#DejaVuSans-Bold-72" transform="translate(708.886719 0)"/>
     <use xlink:href="#DejaVuSans-Bold-65" transform="translate(758.203125 0)"/>
     <use xlink:href="#DejaVuSans-Bold-6d" transform="translate(826.025391 0)"/>
     <use xlink:href="#DejaVuSans-Bold-69" transform="translate(930.224609 0)"/>
     <use xlink:href="#DejaVuSans-Bold-75" transform="translate(964.501953 0)"/>
     <use xlink:href="#DejaVuSans-Bold-6d" transform="translate(1035.693359 0)"/>
    </g>
   </g>
   <g id="text_12">
    <!-- 61.6% -->
    <g style="fill: #ef4444" transform="translate(808.9215 344.41817) scale(0.11 -0.11)">
     <use xlink:href="#DejaVuSans-Bold-36"/>
     <use xlink:href="#DejaVuSans-Bold-31" transform="translate(69.580078 0)"/>
     <use xlink:href="#DejaVuSans-Bold-2e" transform="translate(139.160156 0)"/>
     <use xlink:href="#DejaVuSans-Bold-36" transform="translate(177.148438 0)"/>
     <use xlink:href="#DejaVuSans-Bold-25" transform="translate(246.728516 0)"/>
    </g>
   </g>
   <g id="text_13">
    <!-- All metrics validated on 200-query internal benchmark -->
    <g style="fill: #64748b" transform="translate(291.380625 400.011429) scale(0.09 -0.09)">
     <defs>
      <path id="DejaVuSans-Oblique-41" d="M 2356 4666 
L 3072 4666 
L 3938 0 
L 3278 0 
L 3084 1197 
L 984 1197 
L 325 0 
L -341 0 
L 2356 4666 
z
M 2584 4044 
L 1275 1722 
L 2988 1722 
L 2584 4044 
z
" transform="scale(0.015625)"/>
      <path id="DejaVuSans-Oblique-6d" d="M 5747 2113 
L 5338 0 
L 4763 0 
L 5166 2094 
Q 5191 2228 5203 2325 
Q 5216 2422 5216 2491 
Q 5216 2772 5059 2928 
Q 4903 3084 4622 3084 
Q 4203 3084 3875 2770 
Q 3547 2456 3450 1953 
L 3066 0 
L 2491 0 
L 2900 2094 
Q 2925 2209 2937 2307 
Q 2950 2406 2950 2484 
Q 2950 2769 2794 2926 
Q 2638 3084 2363 3084 
Q 1938 3084 1609 2770 
Q 1281 2456 1184 1953 
L 800 0 
L 225 0 
L 909 3500 
L 1484 3500 
L 1375 2956 
Q 1609 3263 1923 3423 
Q 2238 3584 2597 3584 
Q 2978 3584 3223 3384 
Q 3469 3184 3519 2828 
Q 3781 3197 4126 3390 
Q 4472 3584 4856 3584 
Q 5306 3584 5551 3325 
Q 5797 3066 5797 2591 
Q 5797 2488 5784 2364 
Q 5772 2241 5747 2113 
z
" transform="scale(0.015625)"/>
      <path id="DejaVuSans-Oblique-63" d="M 3431 3366 
L 3316 2797 
Q 3109 2947 2876 3022 
Q 2644 3097 2394 3097 
Q 2119 3097 1870 3000 
Q 1622 2903 1453 2725 
Q 1184 2453 1037 2087 
Q 891 1722 891 1331 
Q 891 859 1127 628 
Q 1363 397 1844 397 
Q 2081 397 2348 469 
Q 2616 541 2906 684 
L 2797 116 
Q 2547 13 2283 -39 
Q 2019 -91 1741 -91 
Q 1044 -91 669 257 
Q 294 606 294 1253 
Q 294 1797 489 2255 
Q 684 2713 1069 3078 
Q 1331 3328 1684 3456 
Q 2038 3584 2456 3584 
Q 2700 3584 2940 3529 
Q 3181 3475 3431 3366 
z
" transform="scale(0.015625)"/>
      <path id="DejaVuSans-Oblique-73" d="M 3200 3397 
L 3091 2853 
Q 2863 2978 2609 3040 
Q 2356 3103 2088 3103 
Q 1634 3103 1373 2948 
Q 1113 2794 1113 2528 
Q 1113 2219 1719 2053 
Q 1766 2041 1788 2034 
L 1972 1978 
Q 2547 1819 2739 1644 
Q 2931 1469 2931 1166 
Q 2931 609 2489 259 
Q 2047 -91 1331 -91 
Q 1053 -91 747 -37 
Q 441 16 72 128 
L 184 722 
Q 500 559 806 475 
Q 1113 391 1394 391 
Q 1816 391 2080 572 
Q 2344 753 2344 1031 
Q 2344 1331 1650 1516 
L 1591 1531 
L 1394 1581 
Q 956 1697 753 1886 
Q 550 2075 550 2369 
Q 550 2928 970 3256 
Q 1391 3584 2113 3584 
Q 2397 3584 2667 3537 
Q 2938 3491 3200 3397 
z
" transform="scale(0.015625)"/>
      <path id="DejaVuSans-Oblique-2d" d="M 391 2009 
L 2075 2009 
L 1978 1497 
L 288 1497 
L 391 2009 
z
" transform="scale(0.015625)"/>
      <path id="DejaVuSans-Oblique-71" d="M 2669 525 
Q 2438 222 2123 65 
Q 1809 -91 1428 -91 
Q 897 -91 595 267 
Q 294 625 294 1253 
Q 294 1759 480 2231 
Q 666 2703 1013 3078 
Q 1238 3322 1530 3453 
Q 1822 3584 2144 3584 
Q 2531 3584 2781 3431 
Q 3031 3278 3144 2969 
L 3244 3494 
L 3822 3494 
L 2888 -1319 
L 2309 -1319 
L 2669 525 
z
M 891 1338 
Q 891 875 1084 633 
Q 1278 391 1644 391 
Q 2188 391 2572 911 
Q 2956 1431 2956 2175 
Q 2956 2625 2757 2864 
Q 2559 3103 2188 3103 
Q 1916 3103 1684 2976 
Q 1453 2850 1281 2606 
Q 1100 2350 995 2006 
Q 891 1663 891 1338 
z
" transform="scale(0.015625)"/>
      <path id="DejaVuSans-Oblique-75" d="M 428 1388 
L 838 3500 
L 1416 3500 
L 1006 1409 
Q 975 1256 961 1147 
Q 947 1038 947 966 
Q 947 700 1109 554 
Q 1272 409 1569 409 
Q 2031 409 2368 721 
Q 2706 1034 2809 1563 
L 3194 3500 
L 3769 3500 
L 3091 0 
L 2516 0 
L 2631 550 
Q 2388 244 2052 76 
Q 1716 -91 1338 -91 
Q 878 -91 622 161 
Q 366 413 366 863 
Q 366 956 381 1097 
Q 397 1238 428 1388 
z
" transform="scale(0.015625)"/>
      <path id="DejaVuSans-Oblique-62" d="M 3169 2138 
Q 3169 2591 2961 2847 
Q 2753 3103 2388 3103 
Q 2122 3103 1889 2973 
Q 1656 2844 1484 2597 
Q 1303 2338 1198 1995 
Q 1094 1653 1094 1313 
Q 1094 881 1298 636 
Q 1503 391 1863 391 
Q 2134 391 2365 517 
Q 2597 644 2772 891 
Q 2950 1147 3059 1487 
Q 3169 1828 3169 2138 
z
M 1381 2969 
Q 1594 3256 1914 3420 
Q 2234 3584 2584 3584 
Q 3122 3584 3439 3221 
Q 3756 2859 3756 2241 
Q 3756 1734 3570 1259 
Q 3384 784 3041 416 
Q 2816 172 2522 40 
Q 2228 -91 1906 -91 
Q 1566 -91 1316 65 
Q 1066 222 909 531 
L 806 0 
L 231 0 
L 1178 4863 
L 1753 4863 
L 1381 2969 
z
" transform="scale(0.015625)"/>
      <path id="DejaVuSans-Oblique-68" d="M 3566 2113 
L 3156 0 
L 2578 0 
L 2988 2091 
Q 3016 2238 3031 2350 
Q 3047 2463 3047 2528 
Q 3047 2791 2881 2937 
Q 2716 3084 2419 3084 
Q 1956 3084 1617 2771 
Q 1278 2459 1178 1941 
L 800 0 
L 225 0 
L 1172 4863 
L 1747 4863 
L 1375 2950 
Q 1594 3244 1934 3414 
Q 2275 3584 2650 3584 
Q 3113 3584 3367 3334 
Q 3622 3084 3622 2631 
Q 3622 2519 3608 2391 
Q 3594 2263 3566 2113 
z
" transform="scale(0.015625)"/>
      <path id="DejaVuSans-Oblique-6b" d="M 1172 4863 
L 1747 4863 
L 1197 2028 
L 3169 3500 
L 3916 3500 
L 1716 1825 
L 3322 0 
L 2625 0 
L 1131 1709 
L 800 0 
L 225 0 
L 1172 4863 
z
" transform="scale(0.015625)"/>
     </defs>
     <use xlink:href="#DejaVuSans-Oblique-41"/>
     <use xlink:href="#DejaVuSans-Oblique-6c" transform="translate(68.408203 0)"/>
     <use xlink:href="#DejaVuSans-Oblique-6c" transform="translate(96.191406 0)"/>
     <use xlink:href="#DejaVuSans-Oblique-20" transform="translate(123.974609 0)"/>
     <use xlink:href="#DejaVuSans-Oblique-6d" transform="translate(155.761719 0)"/>
     <use xlink:href="#DejaVuSans-Oblique-65" transform="translate(253.173828 0)"/>
     <use xlink:href="#DejaVuSans-Oblique-74" transform="translate(314.697266 0)"/>
     <use xlink:href="#DejaVuSans-Oblique-72" transform="translate(353.90625 0)"/>
     <use xlink:href="#DejaVuSans-Oblique-69" transform="translate(395.019531 0)"/>
     <use xlink:href="#DejaVuSans-Oblique-63" transform="translate(422.802734 0)"/>
     <use xlink:href="#DejaVuSans-Oblique-73" transform="translate(477.783203 0)"/>
     <use xlink:href="#DejaVuSans-Oblique-20" transform="translate(529.882812 0)"/>
     <use xlink:href="#DejaVuSans-Oblique-76" transform="translate(561.669922 0)"/>
     <use xlink:href="#DejaVuSans-Oblique-61" transform="translate(620.849609 0)"/>
     <use xlink:href="#DejaVuSans-Oblique-6c" transform="translate(682.128906 0)"/>
     <use xlink:href="#DejaVuSans-Oblique-69" transform="translate(709.912109 0)"/>
     <use xlink:href="#DejaVuSans-Oblique-64" transform="translate(737.695312 0)"/>
     <use xlink:href="#DejaVuSans-Oblique-61" transform="translate(801.171875 0)"/>
     <use xlink:href="#DejaVuSans-Oblique-74" transform="translate(862.451172 0)"/>
     <use xlink:href="#DejaVuSans-Oblique-65" transform="translate(901.660156 0)"/>
     <use xlink:href="#DejaVuSans-Oblique-64" transform="translate(963.183594 0)"/>
     <use xlink:href="#DejaVuSans-Oblique-20" transform="translate(1026.660156 0)"/>
     <use xlink:href="#DejaVuSans-Oblique-6f" transform="translate(1058.447266 0)"/>
     <use xlink:href="#DejaVuSans-Oblique-6e" transform="translate(1119.628906 0)"/>
     <use xlink:href="#DejaVuSans-Oblique-20" transform="translate(1183.007812 0)"/>
     <use xlink:href="#DejaVuSans-Oblique-32" transform="translate(1214.794922 0)"/>
     <use xlink:href="#DejaVuSans-Oblique-30" transform="translate(1278.417969 0)"/>
     <use xlink:href="#DejaVuSans-Oblique-30" transform="translate(1342.041016 0)"/>
     <use xlink:href="#DejaVuSans-Oblique-2d" transform="translate(1405.664062 0)"/>
     <use xlink:href="#DejaVuSans-Oblique-71" transform="translate(1441.748047 0)"/>
     <use xlink:href="#DejaVuSans-Oblique-75" transform="translate(1505.224609 0)"/>
     <use xlink:href="#DejaVuSans-Oblique-65" transform="translate(1568.603516 0)"/>
     <use xlink:href="#DejaVuSans-Oblique-72" transform="translate(1630.126953 0)"/>
     <use xlink:href="#DejaVuSans-Oblique-79" transform="translate(1671.240234 0)"/>
     <use xlink:href="#DejaVuSans-Oblique-20" transform="translate(1730.419922 0)"/>
     <use xlink:href="#DejaVuSans-Oblique-69" transform="translate(1762.207031 0)"/>
     <use xlink:href="#DejaVuSans-Oblique-6e" transform="translate(1789.990234 0)"/>
     <use xlink:href="#DejaVuSans-Oblique-74" transform="translate(1853.369141 0)"/>
     <use xlink:href="#DejaVuSans-Oblique-65" transform="translate(1892.578125 0)"/>
     <use xlink:href="#DejaVuSans-Oblique-72" transform="translate(1954.101562 0)"/>
     <use xlink:href="#DejaVuSans-Oblique-6e" transform="translate(1995.214844 0)"/>
     <use xlink:href="#DejaVuSans-Oblique-61" transform="translate(2058.59375 0)"/>
     <use xlink:href="#DejaVuSans-Oblique-6c" transform="translate(2119.873047 0)"/>
     <use xlink:href="#DejaVuSans-Oblique-20" transform="translate(2147.65625 0)"/>
     <use xlink:href="#DejaVuSans-Oblique-62" transform="translate(2179.443359 0)"/>
     <use xlink:href="#DejaVuSans-Oblique-65" transform="translate(2242.919922 0)"/>
     <use xlink:href="#DejaVuSans-Oblique-6e" transform="translate(2304.443359 0)"/>
     <use xlink:href="#DejaVuSans-Oblique-63" transform="translate(2367.822266 0)"/>
     <use xlink:href="#DejaVuSans-Oblique-68" transform="translate(2422.802734 0)"/>
     <use xlink:href="#DejaVuSans-Oblique-6d" transform="translate(2486.181641 0)"/>
     <use xlink:href="#DejaVuSans-Oblique-61" transform="translate(2583.59375 0)"/>
     <use xlink:href="#DejaVuSans-Oblique-72" transform="translate(2644.873047 0)"/>
     <use xlink:href="#DejaVuSans-Oblique-6b" transform="translate(2685.986328 0)"/>
    </g>
   </g>
  </g>
 </g>
 <defs>
  <clipPath id="p02bbaac87c">
   <rect x="7.2" y="7.2" width="815.31" height="410.4"/>
  </clipPath>
 </defs>
</svg>
