<svg xmlns="http://www.w3.org/2000/svg" viewBox="0 0 480 280" width="480" height="280">
  <defs>
    <linearGradient id="latBg" x1="0%" y1="0%" x2="0%" y2="100%">
      <stop offset="0%" stop-color="#f8fafc"/>
      <stop offset="100%" stop-color="#f1f5f9"/>
    </linearGradient>
  </defs>

  <rect width="480" height="280" fill="url(#latBg)"/>

  <!-- Title -->
  <text x="240" y="26" text-anchor="middle" fill="#111" font-family="system-ui,sans-serif" font-size="14" font-weight="600">Latency Breakdown — Routing Overhead</text>
  <text x="240" y="42" text-anchor="middle" fill="#666" font-family="system-ui,sans-serif" font-size="10">Groq baseline: 138ms | All numbers from independent benchmark (May 2026)</text>

  <!-- Chart: stacked bar, baseline 138ms = 100% -->
  <!-- Scale: 1ms = 1.3px for 280px chart height, or use discrete bars -->

  <!-- Y-axis: 0 to 450ms -->
  <line x1="50" y1="65" x2="50" y2="235" stroke="#cbd5e1" stroke-width="1"/>
  <line x1="50" y1="235" x2="460" y2="235" stroke="#cbd5e1" stroke-width="1"/>

  <!-- Y-axis grid lines at 0, 100, 200, 300, 400 -->
  <g stroke="#e2e8eb" stroke-width="1" stroke-dasharray="3,3">
    <line x1="50" y1="65" x2="460" y2="65"/>
    <line x1="50" y1="105" x2="460" y2="105"/>
    <line x1="50" y1="145" x2="460" y2="145"/>
    <line x1="50" y1="185" x2="460" y2="185"/>
  </g>

  <!-- Y-axis labels -->
  <g font-family="system-ui,sans-serif" font-size="10" fill="#64748b" text-anchor="end">
    <text x="42" y="69">400ms</text>
    <text x="42" y="109">300ms</text>
    <text x="42" y="149">200ms</text>
    <text x="42" y="189">100ms</text>
    <text x="42" y="239">0ms</text>
  </g>

  <!-- Bar 1: Direct to Groq = 138ms -->
  <rect x="70" y="97" width="80" height="138" fill="#94a3b8" rx="3"/>
  <text x="110" y="91" text-anchor="middle" fill="#475569" font-family="system-ui,sans-serif" font-size="11" font-weight="600">138ms</text>
  <text x="110" y="252" text-anchor="middle" fill="#333" font-family="system-ui,sans-serif" font-size="10">Direct Groq</text>

  <!-- Bar 2: A3M Forced Route = 234ms (+96ms overhead) -->
  <rect x="175" y="61" width="80" height="174" fill="#3b82f6" rx="3"/>
  <text x="215" y="55" text-anchor="middle" fill="#1d4ed8" font-family="system-ui,sans-serif" font-size="11" font-weight="600">234ms</text>
  <!-- Overhead annotation -->
  <line x1="152" y1="97" x2="175" y2="97" stroke="#94a3b8" stroke-width="1" stroke-dasharray="2,2"/>
  <text x="163" y="94" text-anchor="middle" fill="#64748b" font-family="system-ui,sans-serif" font-size="8">+96ms</text>
  <text x="215" y="252" text-anchor="middle" fill="#333" font-family="system-ui,sans-serif" font-size="10">A3M Forced</text>

  <!-- Bar 3: A3M Auto Route = 374ms (+236ms overhead) -->
  <rect x="280" y="23" width="80" height="212" fill="#22c55e" rx="3"/>
  <text x="320" y="17" text-anchor="middle" fill="#15803d" font-family="system-ui,sans-serif" font-size="11" font-weight="600">374ms</text>
  <!-- Overhead annotation -->
  <line x1="152" y1="61" x2="280" y2="61" stroke="#94a3b8" stroke-width="1" stroke-dasharray="2,2"/>
  <text x="216" y="58" text-anchor="middle" fill="#64748b" font-family="system-ui,sans-serif" font-size="8">+236ms</text>
  <text x="320" y="252" text-anchor="middle" fill="#333" font-family="system-ui,sans-serif" font-size="10">A3M Auto</text>

  <!-- Breakdown for A3M Auto: 138 base + 96ms proxy + 140ms routing -->
  <!-- Proxy overhead annotation -->
  <line x1="255" y1="97" x2="280" y2="97" stroke="#3b82f6" stroke-width="1" stroke-dasharray="2,2"/>
  <text x="267" y="94" text-anchor="middle" fill="#3b82f6" font-family="system-ui,sans-serif" font-size="8">+96ms</text>
  <text x="267" y="86" text-anchor="middle" fill="#64748b" font-family="system-ui,sans-serif" font-size="7">(proxy overhead)</text>

  <line x1="255" y1="61" x2="280" y2="61" stroke="#22c55e" stroke-width="1" stroke-dasharray="2,2"/>
  <text x="267" y="58" text-anchor="middle" fill="#22c55e" font-family="system-ui,sans-serif" font-size="8">+140ms</text>
  <text x="267" y="50" text-anchor="middle" fill="#64748b" font-family="system-ui,sans-serif" font-size="7">(routing decision)</text>

  <!-- Legend -->
  <rect x="370" y="75" width="12" height="12" fill="#94a3b8" rx="2"/>
  <text x="387" y="85" fill="#333" font-family="system-ui,sans-serif" font-size="9">Baseline</text>
  <rect x="370" y="95" width="12" height="12" fill="#3b82f6" rx="2"/>
  <text x="387" y="105" fill="#333" font-family="system-ui,sans-serif" font-size="9">Proxy overhead</text>
  <rect x="370" y="115" width="12" height="12" fill="#22c55e" rx="2"/>
  <text x="387" y="125" fill="#333" font-family="system-ui,sans-serif" font-size="9">Routing decision</text>

  <!-- Note -->
  <text x="240" y="272" text-anchor="middle" fill="#888" font-family="system-ui,sans-serif" font-size="9">236ms total overhead is less than the time it takes to blink (~300ms)</text>
</svg>
