<svg xmlns="http://www.w3.org/2000/svg" viewBox="0 0 800 400" width="800" height="400">
  <defs>
    <!-- Gradients -->
    <linearGradient id="bgGrad" x1="0%" y1="0%" x2="100%" y2="100%">
      <stop offset="0%" stop-color="#0a0f1c"/>
      <stop offset="100%" stop-color="#111827"/>
    </linearGradient>
    <linearGradient id="lineGrad" x1="0%" y1="0%" x2="100%" y2="0%">
      <stop offset="0%" stop-color="#6366f1"/>
      <stop offset="33%" stop-color="#8b5cf6"/>
      <stop offset="66%" stop-color="#06b6d4"/>
      <stop offset="100%" stop-color="#10b981"/>
    </linearGradient>
    <linearGradient id="areaGrad" x1="0%" y1="0%" x2="0%" y2="100%">
      <stop offset="0%" stop-color="#6366f1" stop-opacity="0.35"/>
      <stop offset="50%" stop-color="#8b5cf6" stop-opacity="0.15"/>
      <stop offset="100%" stop-color="#06b6d4" stop-opacity="0"/>
    </linearGradient>
    <linearGradient id="glowGrad" x1="0%" y1="0%" x2="100%" y2="0%">
      <stop offset="0%" stop-color="#6366f1" stop-opacity="0.4"/>
      <stop offset="100%" stop-color="#06b6d4" stop-opacity="0.1"/>
    </linearGradient>
    
    <!-- Filters -->
    <filter id="softGlow" x="-50%" y="-50%" width="200%" height="200%">
      <feGaussianBlur stdDeviation="4" result="blur"/>
      <feMerge><feMergeNode in="blur"/><feMergeNode in="SourceGraphic"/></feMerge>
    </filter>
    <filter id="lineGlow" x="-20%" y="-20%" width="140%" height="140%">
      <feGaussianBlur stdDeviation="2" result="blur"/>
      <feMerge><feMergeNode in="blur"/><feMergeNode in="SourceGraphic"/></feMerge>
    </filter>
    
    <!-- Grid pattern -->
    <pattern id="gridPattern" width="40" height="40" patternUnits="userSpaceOnUse">
      <path d="M 40 0 L 0 0 0 40" fill="none" stroke="#1f2937" stroke-width="0.5" opacity="0.5"/>
    </pattern>
  </defs>
  
  <!-- Background -->
  <rect width="800" height="400" fill="url(#bgGrad)"/>
  <rect width="800" height="400" fill="url(#gridPattern)"/>
  
  <!-- Header -->
  <text x="400" y="38" text-anchor="middle" fill="#f9fafb" font-family="system-ui,-apple-system,sans-serif" font-size="22" font-weight="700" letter-spacing="-0.5">Downloads Growth</text>
  <text x="400" y="60" text-anchor="middle" fill="#6b7280" font-family="system-ui,sans-serif" font-size="13">Last 4 weeks trajectory</text>
  
  <!-- Chart area: x=80..750, y=90..330 -->
  
  <!-- Y-axis labels -->
  <g fill="#6b7280" font-family="system-ui,sans-serif" font-size="12" text-anchor="end">
    <text x="65" y="330">0</text>
    <text x="65" y="265">500</text>
    <text x="65" y="200">1K</text>
    <text x="65" y="135">1.5K</text>
    <text x="65" y="100">2K</text>
  </g>
  
  <!-- Y-axis grid lines -->
  <g stroke="#1f2937" stroke-width="1" stroke-dasharray="3,3">
    <line x1="80" y1="330" x2="750" y2="330"/>
    <line x1="80" y1="265" x2="750" y2="265"/>
    <line x1="80" y1="200" x2="750" y2="200"/>
    <line x1="80" y1="135" x2="750" y2="135"/>
    <line x1="80" y1="100" x2="750" y2="100"/>
  </g>
  
  <!-- Axes -->
  <line x1="80" y1="330" x2="750" y2="330" stroke="#374151" stroke-width="2"/>
  <line x1="80" y1="100" x2="80" y2="330" stroke="#374151" stroke-width="2"/>
  
  <!-- Area fill -->
  <path d="M80,310 Q130,308 180,295 T280,260 T380,210 T480,155 T580,115 T680,95 T750,88 L750,330 L80,330 Z" fill="url(#areaGrad)"/>
  
  <!-- Glow line behind -->
  <path d="M80,310 Q130,308 180,295 T280,260 T380,210 T480,155 T580,115 T680,95 T750,88" 
        stroke="url(#lineGrad)" stroke-width="8" fill="none" stroke-linecap="round" opacity="0.3" filter="url(#lineGlow)"/>
  
  <!-- Main line -->
  <path d="M80,310 Q130,308 180,295 T280,260 T380,210 T480,155 T580,115 T680,95 T750,88" 
        stroke="url(#lineGrad)" stroke-width="3" fill="none" stroke-linecap="round" filter="url(#softGlow)"/>
  
  <!-- Data points with glow -->
  <g filter="url(#softGlow)">
    <circle cx="80" cy="310" r="6" fill="#6366f1"/>
    <circle cx="180" cy="295" r="6" fill="#8b5cf6"/>
    <circle cx="280" cy="260" r="6" fill="#8b5cf6"/>
    <circle cx="380" cy="210" r="6" fill="#06b6d4"/>
    <circle cx="480" cy="155" r="6" fill="#06b6d4"/>
    <circle cx="580" cy="115" r="6" fill="#10b981"/>
    <circle cx="680" cy="95" r="6" fill="#10b981"/>
    <circle cx="750" cy="88" r="8" fill="#10b981"/>
  </g>
  
  <!-- Inner dots -->
  <g>
    <circle cx="80" cy="310" r="2.5" fill="#fff"/>
    <circle cx="180" cy="295" r="2.5" fill="#fff"/>
    <circle cx="280" cy="260" r="2.5" fill="#fff"/>
    <circle cx="380" cy="210" r="2.5" fill="#fff"/>
    <circle cx="480" cy="155" r="2.5" fill="#fff"/>
    <circle cx="580" cy="115" r="2.5" fill="#fff"/>
    <circle cx="680" cy="95" r="2.5" fill="#fff"/>
    <circle cx="750" cy="88" r="3" fill="#fff"/>
  </g>
  
  <!-- X-axis labels -->
  <g fill="#6b7280" font-family="system-ui,sans-serif" font-size="12" text-anchor="middle">
    <text x="80" y="355">Week 0</text>
    <text x="280" y="355">Week 1</text>
    <text x="480" y="355">Week 2</text>
    <text x="680" y="355">Week 3</text>
    <text x="750" y="355">Now</text>
  </g>
  
  <!-- Stat card -->
  <g transform="translate(580, 55)">
    <rect x="0" y="0" width="160" height="55" rx="10" fill="#10b981" fill-opacity="0.15" stroke="#10b981" stroke-width="1"/>
    <text x="80" y="25" text-anchor="middle" fill="#10b981" font-family="system-ui,sans-serif" font-size="22" font-weight="800">+149%</text>
    <text x="80" y="45" text-anchor="middle" fill="#6b7280" font-family="system-ui,sans-serif" font-size="12">growth in 4 weeks</text>
  </g>
</svg>