<svg xmlns="http://www.w3.org/2000/svg" width="800" height="620" viewBox="0 0 800 620">
  <defs>
    <linearGradient id="bar" x1="0" y1="0" x2="1" y2="0">
      <stop offset="0%" stop-color="#1a1a2e"/>
      <stop offset="100%" stop-color="#16213e"/>
    </linearGradient>
  </defs>
  
  <!-- Terminal window -->
  <rect width="800" height="620" rx="12" fill="#0d1117" stroke="#30363d" stroke-width="1"/>
  
  <!-- Title bar -->
  <rect width="800" height="36" rx="12" fill="url(#bar)"/>
  <rect y="24" width="800" height="12" fill="url(#bar)"/>
  
  <!-- Traffic lights -->
  <circle cx="20" cy="18" r="6" fill="#ff5f57"/>
  <circle cx="40" cy="18" r="6" fill="#febc2e"/>
  <circle cx="60" cy="18" r="6" fill="#28c840"/>
  
  <!-- Title text -->
  <text x="400" y="22" text-anchor="middle" fill="#8b949e" font-family="monospace" font-size="12">a3m-router — demo</text>
  
  <!-- Terminal content -->
  <g font-family="'SF Mono', 'Fira Code', 'Cascadia Code', monospace" font-size="13" fill="#c9d1d9">
    
    <!-- Install -->
    <text x="16" y="58" fill="#8b949e">$</text>
    <text x="32" y="58" fill="#79c0ff">npm install adaptive-memory-multi-model-router</text>
    <text x="16" y="76" fill="#3fb950">added 1 package in 3s</text>
    
    <!-- Route simple -->
    <text x="16" y="104" fill="#8b949e">$</text>
    <text x="32" y="104" fill="#79c0ff">npx a3m-router route "What is 2+2?"</text>
    <text x="16" y="126" fill="#d2a8ff">🔀 Route Result</text>
    <text x="16" y="144" fill="#8b949e">  Primary:  </text><text x="100" y="144" fill="#3fb950">commandcode/taste-1</text>
    <text x="16" y="162" fill="#8b949e">  Cost:     </text><text x="100" y="162" fill="#3fb950">$0.00 (free tier)</text>
    <text x="16" y="180" fill="#8b949e">  Score:    </text><text x="100" y="180" fill="#79c0ff">8/100 (TRIVIAL)</text>
    
    <!-- Route complex -->
    <text x="16" y="210" fill="#8b949e">$</text>
    <text x="32" y="210" fill="#79c0ff">npx a3m-router route "Analyze economic implications of AI..."</text>
    <text x="16" y="232" fill="#d2a8ff">🔀 Route Result</text>
    <text x="16" y="250" fill="#8b949e">  Primary:  </text><text x="100" y="250" fill="#ffa657">ollama/llama3</text>
    <text x="16" y="268" fill="#8b949e">  Cost:     </text><text x="100" y="268" fill="#3fb950">$0.00 (local)</text>
    <text x="16" y="286" fill="#8b949e">  Score:    </text><text x="100" y="286" fill="#ffa657">78/100 (COMPLEX)</text>
    
    <!-- Batch -->
    <text x="16" y="316" fill="#8b949e">$</text>
    <text x="32" y="316" fill="#79c0ff">npx a3m-router batch "2+2?" "sort function" "quantum"</text>
    <text x="16" y="338" fill="#d2a8ff">🔀 Batch Results</text>
    <text x="16" y="356" fill="#8b949e">  1. "What is 2+2?..."       →</text><text x="340" y="356" fill="#3fb950">commandcode  (FREE)</text>
    <text x="16" y="374" fill="#8b949e">  2. "sort function..."       →</text><text x="340" y="374" fill="#3fb950">commandcode  (FREE)</text>
    <text x="16" y="392" fill="#8b949e">  3. "quantum..."             →</text><text x="340" y="392" fill="#ffa657">ollama/llama3 (LOCAL)</text>
    <text x="16" y="412" fill="#8b949e">  Total: $0.00  |  GPT-4o: $0.08  |  Savings:</text><text x="430" y="412" fill="#3fb950">100%</text>
    
    <!-- Serve -->
    <text x="16" y="442" fill="#8b949e">$</text>
    <text x="32" y="442" fill="#79c0ff">npx a3m-router serve</text>
    <text x="16" y="462" fill="#3fb950">🔀 Proxy running on http://localhost:8787/v1</text>
    <text x="16" y="480" fill="#8b949e">  OpenAI-compatible. Point any SDK here.</text>
    <text x="16" y="498" fill="#8b949e">  39 providers. Dashboard at http://localhost:8787/</text>
    
    <!-- Summary -->
    <text x="16" y="534" fill="#8b949e">$</text>
    <text x="32" y="534" fill="#8b949e"># 2,775 downloads in 3 days. 245% growth. Zero budget.</text>
    <text x="16" y="554" fill="#8b949e"># github.com/Das-rebel/adaptive-memory-multi-model-router</text>
    
    <!-- Blinking cursor -->
    <rect x="16" y="572" width="8" height="16" fill="#c9d1d9">
      <animate attributeName="opacity" values="1;0;1" dur="1.2s" repeatCount="indefinite"/>
    </rect>
    
  </g>
</svg>
