<svg xmlns="http://www.w3.org/2000/svg" viewBox="0 0 800 500" font-family="system-ui, -apple-system, sans-serif">
  <defs>
    <linearGradient id="bg" x1="0" y1="0" x2="0" y2="1">
      <stop offset="0%" stop-color="#0d1117"/>
      <stop offset="100%" stop-color="#161b22"/>
    </linearGradient>
    <linearGradient id="bar1" x1="0" y1="0" x2="0" y2="1">
      <stop offset="0%" stop-color="#3fb950"/>
      <stop offset="100%" stop-color="#238636"/>
    </linearGradient>
    <linearGradient id="bar2" x1="0" y1="0" x2="0" y2="1">
      <stop offset="0%" stop-color="#58a6ff"/>
      <stop offset="100%" stop-color="#388bfd"/>
    </linearGradient>
  </defs>
  
  <!-- Background -->
  <rect width="800" height="500" fill="url(#bg)" rx="12"/>
  
  <!-- Title -->
  <text x="400" y="40" text-anchor="middle" fill="#f0f6fc" font-size="22" font-weight="700">LLM Router Cost Comparison — RouterArena Benchmark</text>
  <text x="400" y="62" text-anchor="middle" fill="#8b949e" font-size="14">#1 ranked AND cheapest. No tradeoffs.</text>

  <!-- Chart area: x=100, y=80, w=600, h=320 -->
  <!-- Y-axis -->
  <line x1="100" y1="80" x2="100" y2="400" stroke="#30363d" stroke-width="1"/>
  <!-- Y gridlines & labels -->
  <text x="95" y="405" text-anchor="end" fill="#8b949e" font-size="11">$0</text>
  <line x1="100" y1="400" x2="700" y2="400" stroke="#30363d" stroke-width="0.5"/>
  <text x="95" y="325" text-anchor="end" fill="#8b949e" font-size="11">$2</text>
  <line x1="100" y1="320" x2="700" y2="320" stroke="#30363d" stroke-width="0.5" stroke-dasharray="4"/>
  <text x="95" y="250" text-anchor="end" fill="#8b949e" font-size="11">$5</text>
  <line x1="100" y1="245" x2="700" y2="245" stroke="#30363d" stroke-width="0.5" stroke-dasharray="4"/>
  <text x="95" y="165" text-anchor="end" fill="#8b949e" font-size="11">$8</text>
  <line x1="100" y1="160" x2="700" y2="160" stroke="#30363d" stroke-width="0.5" stroke-dasharray="4"/>
  <text x="95" y="85" text-anchor="end" fill="#8b949e" font-size="11">$10</text>
  <line x1="100" y1="80" x2="700" y2="80" stroke="#30363d" stroke-width="0.5" stroke-dasharray="4"/>
  
  <!-- Bars -->
  <!-- A3M Router: $0.047 → 3.76px (barely visible, so we show 4px min + label) -->
  <rect x="130" y="396" width="80" height="4" fill="url(#bar1)" rx="2"/>
  <text x="170" y="392" text-anchor="middle" fill="#3fb950" font-size="13" font-weight="700">$0.047</text>
  <text x="170" y="420" text-anchor="middle" fill="#f0f6fc" font-size="13" font-weight="600">A3M 🥇</text>
  <rect x="150" y="428" width="40" height="16" fill="#238636" rx="4"/>
  <text x="170" y="440" text-anchor="middle" fill="#fff" font-size="9" font-weight="600">76.43</text>
  
  <!-- Sqwish: $0.18 → 5.76px -->
  <rect x="240" y="394" width="80" height="6" fill="url(#bar2)" rx="2"/>
  <text x="280" y="390" text-anchor="middle" fill="#58a6ff" font-size="13">$0.18</text>
  <text x="280" y="420" text-anchor="middle" fill="#c9d1d9" font-size="13">Sqwish 🥈</text>
  <rect x="260" y="428" width="40" height="16" fill="#388bfd" rx="4"/>
  <text x="280" y="440" text-anchor="middle" fill="#fff" font-size="9">75.27</text>
  
  <!-- Azure: $0.22 → 7.04px -->
  <rect x="350" y="393" width="80" height="7" fill="#6e7681" rx="2"/>
  <text x="390" y="389" text-anchor="middle" fill="#8b949e" font-size="13">$0.22</text>
  <text x="390" y="420" text-anchor="middle" fill="#8b949e" font-size="13">Azure 🥉</text>
  <rect x="370" y="428" width="40" height="16" fill="#6e7681" rx="4"/>
  <text x="390" y="440" text-anchor="middle" fill="#fff" font-size="9">71.87</text>
  
  <!-- RouteLLM: $0.27 → 8.64px -->
  <rect x="460" y="391" width="80" height="9" fill="#6e7681" rx="2"/>
  <text x="500" y="387" text-anchor="middle" fill="#8b949e" font-size="13">$0.27</text>
  <text x="500" y="420" text-anchor="middle" fill="#8b949e" font-size="13">RouteLLM</text>
  <rect x="480" y="428" width="40" height="16" fill="#6e7681" rx="4"/>
  <text x="500" y="440" text-anchor="middle" fill="#fff" font-size="9">48.07</text>
  
  <!-- GPT-5: $10.02 → 320px (MASSIVE) -->
  <rect x="570" y="80" width="80" height="320" fill="#da3633" rx="2" opacity="0.8"/>
  <text x="610" y="75" text-anchor="middle" fill="#f85149" font-size="13" font-weight="700">$10.02</text>
  <text x="610" y="420" text-anchor="middle" fill="#f85149" font-size="13">GPT-5</text>
  <rect x="590" y="428" width="40" height="16" fill="#da3633" rx="4"/>
  <text x="610" y="440" text-anchor="middle" fill="#fff" font-size="9">64.32</text>
  
  <!-- Legend -->
  <text x="150" y="478" fill="#8b949e" font-size="11">Cost per 1K queries</text>
  <text x="420" y="478" fill="#3fb950" font-size="11">■ = #1 ranked &amp; cheapest</text>
  <text x="600" y="478" fill="#f85149" font-size="11">■ = 213× more expensive</text>
  
  <!-- Callout -->
  <rect x="320" y="200" width="250" height="60" fill="#161b22" stroke="#3fb950" stroke-width="1" rx="8" opacity="0.95"/>
  <text x="445" y="222" text-anchor="middle" fill="#f0f6fc" font-size="14" font-weight="700">A3M is 213× cheaper than GPT-5</text>
  <text x="445" y="245" text-anchor="middle" fill="#3fb950" font-size="12">AND scores 12 points higher</text>
  
  <!-- "Try it" CTA -->
  <rect x="580" y="455" width="200" height="30" fill="#238636" rx="6"/>
  <text x="680" y="475" text-anchor="middle" fill="#fff" font-size="12" font-weight="600">npx a3m-router route "hi"</text>
</svg>
