<svg xmlns="http://www.w3.org/2000/svg" width="800" height="300" viewBox="0 0 800 300">
  <defs>
    <linearGradient id="bg" x1="0" y1="0" x2="0" y2="1">
      <stop offset="0%" stop-color="#1a1a2e"/>
      <stop offset="100%" stop-color="#16213e"/>
    </linearGradient>
    <linearGradient id="lineGrad" x1="0" y1="0" x2="1" y2="0">
      <stop offset="0%" stop-color="#4fc3f7"/>
      <stop offset="100%" stop-color="#00e676"/>
    </linearGradient>
    <linearGradient id="areaGrad" x1="0" y1="0" x2="0" y2="1">
      <stop offset="0%" stop-color="#4fc3f7" stop-opacity="0.3"/>
      <stop offset="100%" stop-color="#4fc3f7" stop-opacity="0.02"/>
    </linearGradient>
  </defs>

  <rect width="800" height="300" fill="url(#bg)" rx="12"/>

  <text x="400.0" y="30" text-anchor="middle" fill="#e0e0e0" font-family="monospace" font-size="16" font-weight="bold">npm Downloads</text>
  <text x="400.0" y="50" text-anchor="middle" fill="#90a4ae" font-family="monospace" font-size="11">Total: 11,637 · v2.13.24 · 🥇 RouterArena #1 (96.77%) · No. 1 in Cost at $0.0768/1K</text>
  <line x1="60" y1="60.0" x2="740" y2="60.0" stroke="#2a2a4e" stroke-width="1"/>
  <text x="52" y="64.0" text-anchor="end" fill="#90a4ae" font-family="monospace" font-size="10">11,637</text>
  <line x1="60" y1="105.0" x2="740" y2="105.0" stroke="#2a2a4e" stroke-width="1"/>
  <text x="52" y="109.0" text-anchor="end" fill="#90a4ae" font-family="monospace" font-size="10">8,727</text>
  <line x1="60" y1="150.0" x2="740" y2="150.0" stroke="#2a2a4e" stroke-width="1"/>
  <text x="52" y="154.0" text-anchor="end" fill="#90a4ae" font-family="monospace" font-size="10">5,818</text>
  <line x1="60" y1="195.0" x2="740" y2="195.0" stroke="#2a2a4e" stroke-width="1"/>
  <text x="52" y="199.0" text-anchor="end" fill="#90a4ae" font-family="monospace" font-size="10">2,909</text>
  <line x1="60" y1="240.0" x2="740" y2="240.0" stroke="#2a2a4e" stroke-width="1"/>
  <text x="52" y="244.0" text-anchor="end" fill="#90a4ae" font-family="monospace" font-size="10">0</text>
  <text x="60.0" y="258" text-anchor="middle" fill="#90a4ae" font-family="monospace" font-size="9">05-13</text>
  <text x="157.14285714285714" y="258" text-anchor="middle" fill="#90a4ae" font-family="monospace" font-size="9">05-15</text>
  <text x="254.28571428571428" y="258" text-anchor="middle" fill="#90a4ae" font-family="monospace" font-size="9">05-17</text>
  <text x="351.4285714285714" y="258" text-anchor="middle" fill="#90a4ae" font-family="monospace" font-size="9">05-19</text>
  <text x="448.57142857142856" y="258" text-anchor="middle" fill="#90a4ae" font-family="monospace" font-size="9">05-21</text>
  <text x="545.7142857142858" y="258" text-anchor="middle" fill="#90a4ae" font-family="monospace" font-size="9">05-23</text>
  <text x="642.8571428571428" y="258" text-anchor="middle" fill="#90a4ae" font-family="monospace" font-size="9">05-25</text>
  <text x="740.0" y="258" text-anchor="middle" fill="#90a4ae" font-family="monospace" font-size="9">05-27</text>
  <polygon points="60,240 60.0,240.0 108.6,240.0 157.1,231.5 205.7,226.5 254.3,197.1 302.9,174.7 351.4,168.0 400.0,165.2 448.6,145.6 497.1,114.9 545.7,112.2 594.3,109.0 642.9,100.9 691.4,84.9 740.0,60.0 740.0,240" fill="url(#areaGrad)"/>
  <polyline points="60.0,240.0 108.6,240.0 157.1,231.5 205.7,226.5 254.3,197.1 302.9,174.7 351.4,168.0 400.0,165.2 448.6,145.6 497.1,114.9 545.7,112.2 594.3,109.0 642.9,100.9 691.4,84.9 740.0,60.0" fill="none" stroke="url(#lineGrad)" stroke-width="2.5" stroke-linecap="round" stroke-linejoin="round"/>
  <circle cx="740.0" cy="60.0" r="4" fill="#00e676"/>
  <text x="748.0" y="64.0" fill="#00e676" font-family="monospace" font-size="11" font-weight="bold">11,637 total</text>
</svg>