<svg xmlns="http://www.w3.org/2000/svg" viewBox="0 0 600 300" width="600" height="300">
  <defs>
    <linearGradient id="bg" x1="0%" y1="0%" x2="0%" y2="100%">
      <stop offset="0%" stop-color="#0f172a"/>
      <stop offset="100%" stop-color="#1e293b"/>
    </linearGradient>
    <linearGradient id="lineGrad" x1="0%" y1="0%" x2="100%" y2="0%">
      <stop offset="0%" stop-color="#6366f1"/>
      <stop offset="50%" stop-color="#8b5cf6"/>
      <stop offset="100%" stop-color="#06b6d4"/>
    </linearGradient>
    <linearGradient id="areaGrad" x1="0%" y1="0%" x2="0%" y2="100%">
      <stop offset="0%" stop-color="#6366f1" stop-opacity="0.4"/>
      <stop offset="100%" stop-color="#6366f1" stop-opacity="0"/>
    </linearGradient>
  </defs>
  
  <rect width="600" height="300" fill="url(#bg)"/>
  
  <!-- Title -->
  <text x="300" y="35" text-anchor="middle" fill="#e2e8f0" font-family="system-ui,-apple-system,sans-serif" font-size="18" font-weight="600">A3M Router — Downloads Growth</text>
  
  <!-- Y-axis labels -->
  <g fill="#64748b" font-family="system-ui,sans-serif" font-size="11">
    <text x="50" y="280">0</text>
    <text x="50" y="220">500</text>
    <text x="50" y="160">1K</text>
    <text x="50" y="100">1.5K</text>
    <text x="50" y="55">2K</text>
  </g>
  
  <!-- Grid lines -->
  <g stroke="rgba(255,255,255,0.05)" stroke-width="1">
    <line x1="80" y1="260" x2="560" y2="260"/>
    <line x1="80" y1="200" x2="560" y2="200"/>
    <line x1="80" y1="140" x2="560" y2="140"/>
    <line x1="80" y1="80" x2="560" y2="80"/>
  </g>
  
  <!-- Axis -->
  <line x1="80" y1="260" x2="560" y2="260" stroke="#334155" stroke-width="1.5"/>
  <line x1="80" y1="80" x2="80" y2="260" stroke="#334155" stroke-width="1.5"/>
  
  <!-- Area fill (simplified growth curve) -->
  <path d="M80,240 Q150,235 200,220 T300,180 T400,120 T500,80 T560,65 L560,260 L80,260 Z" fill="url(#areaGrad)"/>
  
  <!-- Growth line -->
  <path d="M80,240 Q150,235 200,220 T300,180 T400,120 T500,80 T560,65" stroke="url(#lineGrad)" stroke-width="3" fill="none" stroke-linecap="round"/>
  
  <!-- Data points -->
  <circle cx="80" cy="240" r="5" fill="#6366f1"/>
  <circle cx="200" cy="220" r="5" fill="#8b5cf6"/>
  <circle cx="300" cy="180" r="5" fill="#8b5cf6"/>
  <circle cx="400" cy="120" r="5" fill="#06b6d4"/>
  <circle cx="500" cy="80" r="5" fill="#06b6d4"/>
  <circle cx="560" cy="65" r="7" fill="#06b6d4"/>
  
  <!-- X-axis labels -->
  <g fill="#64748b" font-family="system-ui,sans-serif" font-size="11" text-anchor="middle">
    <text x="80" y="280">Start</text>
    <text x="280" y="280">Week 2</text>
    <text x="480" y="280">Week 4</text>
  </g>
  
  <!-- Highlight box -->
  <rect x="480" y="50" width="100" height="45" rx="6" fill="rgba(6,182,212,0.15)" stroke="#06b6d4" stroke-width="1"/>
  <text x="530" y="72" text-anchor="middle" fill="#06b6d4" font-family="system-ui,sans-serif" font-size="20" font-weight="700">+149%</text>
  <text x="530" y="87" text-anchor="middle" fill="#94a3b8" font-family="system-ui,sans-serif" font-size="10">4 weeks</text>
</svg>